<svg xmlns="http://www.w3.org/2000/svg" xmlns:xlink="http://www.w3.org/1999/xlink" width="803" height="378" viewBox="0 0 803 378">
  <defs>
    <polygon id="bg-build-a" points="0 377.136 802.175 377.136 802.175 0 0 0"/>
  </defs>
  <g fill="none" fill-rule="evenodd">
    <path fill="#FFF" d="M214.5897 300.8248C215.0587 300.8248 215.4397 300.4448 215.4397 299.9748L215.4397 273.9748C215.4397 273.5058 215.0587 273.1258 214.5897 273.1258 214.1207 273.1258 213.7397 273.5058 213.7397 273.9748L213.7397 299.9748C213.7397 300.4448 214.1207 300.8248 214.5897 300.8248M213.7396 318.3707C213.7396 318.8407 214.1206 319.2207 214.5896 319.2207 215.0586 319.2207 215.4396 318.8407 215.4396 318.3707L215.4396 305.3707C215.4396 304.9007 215.0586 304.5207 214.5896 304.5207 214.1206 304.5207 213.7396 304.9007 213.7396 305.3707L213.7396 318.3707zM223.4398 339.9752L223.4398 273.9752C223.4398 273.5052 223.0588 273.1252 222.5898 273.1252 222.1208 273.1252 221.7398 273.5052 221.7398 273.9752L221.7398 339.9752C221.7398 340.4452 222.1208 340.8252 222.5898 340.8252 223.0588 340.8252 223.4398 340.4452 223.4398 339.9752M231.4398 349.9752L231.4398 273.9752C231.4398 273.5052 231.0588 273.1252 230.5898 273.1252 230.1208 273.1252 229.7398 273.5052 229.7398 273.9752L229.7398 349.9752C229.7398 350.4452 230.1208 350.8252 230.5898 350.8252 231.0588 350.8252 231.4398 350.4452 231.4398 349.9752M273.6068 349.9752L273.6068 273.9752C273.6068 273.5052 273.2258 273.1252 272.7568 273.1252 272.2878 273.1252 271.9068 273.5052 271.9068 273.9752L271.9068 349.9752C271.9068 350.4452 272.2878 350.8252 272.7568 350.8252 273.2258 350.8252 273.6068 350.4452 273.6068 349.9752M281.6068 339.9752L281.6068 273.9752C281.6068 273.5052 281.2258 273.1252 280.7568 273.1252 280.2878 273.1252 279.9068 273.5052 279.9068 273.9752L279.9068 339.9752C279.9068 340.4452 280.2878 340.8252 280.7568 340.8252 281.2258 340.8252 281.6068 340.4452 281.6068 339.9752"/>
    <mask id="bg-build-b" fill="#fff">
      <use xlink:href="#bg-build-a"/>
    </mask>
    <path fill="#FFF" d="M239.44,345.209 L263.907,345.209 L263.907,284.908 L239.44,284.908 L239.44,345.209 Z M188.44,301.242 L205.74,301.242 L205.74,352.126 L200.926,352.126 C200.928,352.102 200.94,352.082 200.94,352.058 L200.94,305.392 C200.94,304.922 200.559,304.543 200.09,304.543 C199.62,304.543 199.24,304.922 199.24,305.392 L199.24,352.058 C199.24,352.082 199.251,352.102 199.253,352.126 L194.926,352.126 C194.928,352.102 194.94,352.082 194.94,352.058 L194.94,305.392 C194.94,304.922 194.559,304.543 194.09,304.543 C193.62,304.543 193.24,304.922 193.24,305.392 L193.24,352.058 C193.24,352.082 193.251,352.102 193.253,352.126 L188.44,352.126 L188.44,301.242 Z M201.173,299.543 L203.228,299.543 L203.228,294.908 L201.173,294.908 L201.173,299.543 Z M198.618,299.543 L200.674,299.543 L200.674,294.908 L198.618,294.908 L198.618,299.543 Z M196.062,299.543 L198.117,299.543 L198.117,294.908 L196.062,294.908 L196.062,299.543 Z M193.507,299.543 L195.563,299.543 L195.563,294.908 L193.507,294.908 L193.507,299.543 Z M190.951,299.543 L193.007,299.543 L193.007,294.908 L190.951,294.908 L190.951,299.543 Z M188.44,299.543 L190.451,299.543 L190.451,294.908 L188.44,294.908 L188.44,299.543 Z M203.729,299.543 L205.74,299.543 L205.74,294.908 L203.729,294.908 L203.729,299.543 Z M261.868,283.209 L263.907,283.209 L263.907,277.367 L261.868,277.367 L261.868,283.209 Z M259.026,283.209 L261.367,283.209 L261.367,277.367 L259.026,277.367 L259.026,283.209 Z M256.185,283.209 L258.526,283.209 L258.526,277.367 L256.185,277.367 L256.185,283.209 Z M253.344,283.209 L255.685,283.209 L255.685,277.367 L253.344,277.367 L253.344,283.209 Z M250.503,283.209 L252.844,283.209 L252.844,277.367 L250.503,277.367 L250.503,283.209 Z M247.662,283.209 L250.003,283.209 L250.003,277.367 L247.662,277.367 L247.662,283.209 Z M244.82,283.209 L247.161,283.209 L247.161,277.367 L244.82,277.367 L244.82,283.209 Z M241.979,283.209 L244.32,283.209 L244.32,277.367 L241.979,277.367 L241.979,283.209 Z M239.44,283.209 L241.479,283.209 L241.479,277.367 L239.44,277.367 L239.44,283.209 Z M212.773,172.075 L241.573,172.075 L241.573,256.475 C241.573,256.945 241.954,257.325 242.423,257.325 L259.923,257.325 C260.392,257.325 260.773,256.945 260.773,256.475 L260.773,172.075 L289.573,172.075 L289.573,268.126 L264.757,268.126 C264.288,268.126 263.907,268.505 263.907,268.975 L263.907,275.668 L239.44,275.668 L239.44,268.975 C239.44,268.505 239.059,268.126 238.59,268.126 L212.773,268.126 L212.773,172.075 Z M218.523,112.991 L235.823,112.991 L235.823,163.876 L231.01,163.876 C231.012,163.852 231.023,163.832 231.023,163.808 L231.023,119.142 C231.023,118.672 230.642,118.292 230.173,118.292 C229.704,118.292 229.323,118.672 229.323,119.142 L229.323,163.808 C229.323,163.832 229.335,163.852 229.337,163.876 L225.01,163.876 C225.012,163.852 225.023,163.832 225.023,163.808 L225.023,127.142 C225.023,126.672 224.642,126.292 224.173,126.292 C223.704,126.292 223.323,126.672 223.323,127.142 L223.323,163.808 C223.323,163.832 223.335,163.852 223.337,163.876 L218.523,163.876 L218.523,112.991 Z M239.632,170.376 L241.573,170.376 L241.573,165.575 L239.632,165.575 L239.632,170.376 Z M236.919,170.376 L239.132,170.376 L239.132,165.575 L236.919,165.575 L236.919,170.376 Z M233.812,111.292 L235.823,111.292 L235.823,106.657 L233.812,106.657 L233.812,111.292 Z M231.256,111.292 L233.312,111.292 L233.312,106.657 L231.256,106.657 L231.256,111.292 Z M228.701,111.292 L230.756,111.292 L230.756,106.657 L228.701,106.657 L228.701,111.292 Z M226.145,111.292 L228.201,111.292 L228.201,106.657 L226.145,106.657 L226.145,111.292 Z M223.59,111.292 L225.645,111.292 L225.645,106.657 L223.59,106.657 L223.59,111.292 Z M221.035,111.292 L223.091,111.292 L223.091,106.657 L221.035,106.657 L221.035,111.292 Z M218.523,111.292 L220.534,111.292 L220.534,106.657 L218.523,106.657 L218.523,111.292 Z M234.205,170.376 L236.418,170.376 L236.418,165.575 L234.205,165.575 L234.205,170.376 Z M231.493,170.376 L233.706,170.376 L233.706,165.575 L231.493,165.575 L231.493,170.376 Z M228.78,170.376 L230.993,170.376 L230.993,165.575 L228.78,165.575 L228.78,170.376 Z M226.067,170.376 L228.28,170.376 L228.28,165.575 L226.067,165.575 L226.067,170.376 Z M223.354,170.376 L225.567,170.376 L225.567,165.575 L223.354,165.575 L223.354,170.376 Z M220.641,170.376 L222.854,170.376 L222.854,165.575 L220.641,165.575 L220.641,170.376 Z M217.928,170.376 L220.141,170.376 L220.141,165.575 L217.928,165.575 L217.928,170.376 Z M215.215,170.376 L217.428,170.376 L217.428,165.575 L215.215,165.575 L215.215,170.376 Z M212.773,170.376 L214.714,170.376 L214.714,165.575 L212.773,165.575 L212.773,170.376 Z M228.023,91.074 L233.323,91.074 L250.323,91.074 L250.323,141.975 C250.323,142.444 250.704,142.824 251.173,142.824 C251.642,142.824 252.023,142.444 252.023,141.975 L252.023,91.074 L269.023,91.074 L274.323,91.074 L274.323,104.958 L265.673,104.958 C265.204,104.958 264.823,105.338 264.823,105.808 L264.823,163.876 L259.923,163.876 C259.454,163.876 259.073,164.255 259.073,164.725 L259.073,255.626 L252.523,255.626 L252.523,236.433 C252.523,235.963 252.142,235.584 251.673,235.584 C251.204,235.584 250.823,235.963 250.823,236.433 L250.823,255.626 L243.273,255.626 L243.273,164.725 C243.273,164.255 242.892,163.876 242.423,163.876 L237.523,163.876 L237.523,105.808 C237.523,105.338 237.142,104.958 236.673,104.958 L228.023,104.958 L228.023,91.074 Z M235.023,89.375 L236.859,89.375 L236.859,82.074 L235.023,82.074 L235.023,89.375 Z M237.455,89.375 L239.419,89.375 L239.419,82.074 L237.455,82.074 L237.455,89.375 Z M241.965,82.074 L241.965,89.375 L240.015,89.375 L240.015,82.074 L240.375,82.074 L241.965,82.074 Z M242.076,68.608 L243.714,68.608 L258.633,68.608 L260.271,68.608 L260.271,80.375 L242.076,80.375 L242.076,68.608 Z M245.414,57.315 L245.456,57.315 L247.014,57.315 L247.014,66.908 L245.414,66.908 L245.414,57.315 Z M247.156,55.616 L255.19,55.616 L255.19,47.014 L247.156,47.014 L247.156,55.616 Z M251.173,42.147 C253.096,42.147 254.704,43.507 255.096,45.315 L247.251,45.315 C247.642,43.507 249.25,42.147 251.173,42.147 L251.173,42.147 Z M252.778,66.909 L254.68,66.909 L254.68,57.315 L252.778,57.315 L252.778,66.909 Z M250.222,66.909 L252.124,66.909 L252.124,57.315 L250.222,57.315 L250.222,66.909 Z M247.667,66.908 L249.569,66.908 L249.569,57.314 L247.667,57.314 L247.667,66.908 Z M256.933,57.315 L256.933,66.908 L255.333,66.908 L255.333,57.315 L256.891,57.315 L256.933,57.315 Z M257.836,89.375 L259.786,89.375 L259.786,82.074 L257.836,82.074 L257.836,89.375 Z M255.29,89.375 L257.24,89.375 L257.24,82.074 L255.29,82.074 L255.29,89.375 Z M252.744,89.375 L254.694,89.375 L254.694,82.074 L252.744,82.074 L252.744,89.375 Z M247.653,89.375 L249.603,89.375 L249.603,82.074 L247.653,82.074 L247.653,89.375 Z M245.107,89.375 L247.057,89.375 L247.057,82.074 L245.107,82.074 L245.107,89.375 Z M242.561,89.375 L244.511,89.375 L244.511,82.074 L242.561,82.074 L242.561,89.375 Z M250.199,89.375 L252.149,89.375 L252.149,82.074 L250.199,82.074 L250.199,89.375 Z M262.332,82.074 L262.332,89.375 L260.382,89.375 L260.382,82.074 L261.971,82.074 L262.332,82.074 Z M262.928,89.375 L264.885,89.375 L264.885,82.074 L262.928,82.074 L262.928,89.375 Z M265.48,89.375 L267.323,89.375 L267.323,82.074 L265.48,82.074 L265.48,89.375 Z M279.01,163.876 C279.012,163.852 279.023,163.832 279.023,163.808 L279.023,127.142 C279.023,126.672 278.642,126.292 278.173,126.292 C277.704,126.292 277.323,126.672 277.323,127.142 L277.323,163.808 C277.323,163.832 277.335,163.852 277.337,163.876 L273.01,163.876 C273.012,163.852 273.023,163.832 273.023,163.808 L273.023,119.142 C273.023,118.672 272.642,118.292 272.173,118.292 C271.704,118.292 271.323,118.672 271.323,119.142 L271.323,163.808 C271.323,163.832 271.335,163.852 271.337,163.876 L266.523,163.876 L266.523,112.991 L283.823,112.991 L283.823,163.876 L279.01,163.876 Z M287.632,170.376 L289.573,170.376 L289.573,165.575 L287.632,165.575 L287.632,170.376 Z M284.919,170.376 L287.132,170.376 L287.132,165.575 L284.919,165.575 L284.919,170.376 Z M282.205,170.376 L284.418,170.376 L284.418,165.575 L282.205,165.575 L282.205,170.376 Z M279.493,170.376 L281.706,170.376 L281.706,165.575 L279.493,165.575 L279.493,170.376 Z M276.78,170.376 L278.993,170.376 L278.993,165.575 L276.78,165.575 L276.78,170.376 Z M274.067,170.376 L276.28,170.376 L276.28,165.575 L274.067,165.575 L274.067,170.376 Z M271.354,170.376 L273.567,170.376 L273.567,165.575 L271.354,165.575 L271.354,170.376 Z M268.641,170.376 L270.854,170.376 L270.854,165.575 L268.641,165.575 L268.641,170.376 Z M265.928,170.376 L268.141,170.376 L268.141,165.575 L265.928,165.575 L265.928,170.376 Z M269.034,111.292 L271.09,111.292 L271.09,106.657 L269.034,106.657 L269.034,111.292 Z M271.59,111.292 L273.645,111.292 L273.645,106.657 L271.59,106.657 L271.59,111.292 Z M276.701,111.292 L278.756,111.292 L278.756,106.657 L276.701,106.657 L276.701,111.292 Z M279.256,111.292 L281.312,111.292 L281.312,106.657 L279.256,106.657 L279.256,111.292 Z M281.812,111.292 L283.823,111.292 L283.823,106.657 L281.812,106.657 L281.812,111.292 Z M274.145,111.292 L276.201,111.292 L276.201,106.657 L274.145,106.657 L274.145,111.292 Z M266.524,111.292 L268.535,111.292 L268.535,106.657 L266.524,106.657 L266.524,111.292 Z M263.215,170.376 L265.428,170.376 L265.428,165.575 L263.215,165.575 L263.215,170.376 Z M260.773,170.376 L262.714,170.376 L262.714,165.575 L260.773,165.575 L260.773,170.376 Z M297.607,299.543 L299.618,299.543 L299.618,294.908 L297.607,294.908 L297.607,299.543 Z M300.118,299.543 L302.174,299.543 L302.174,294.908 L300.118,294.908 L300.118,299.543 Z M302.673,299.543 L304.729,299.543 L304.729,294.908 L302.673,294.908 L302.673,299.543 Z M305.229,299.543 L307.284,299.543 L307.284,294.908 L305.229,294.908 L305.229,299.543 Z M307.784,299.543 L309.84,299.543 L309.84,294.908 L307.784,294.908 L307.784,299.543 Z M310.339,299.543 L312.395,299.543 L312.395,294.908 L310.339,294.908 L310.339,299.543 Z M312.895,299.543 L314.907,299.543 L314.907,294.908 L312.895,294.908 L312.895,299.543 Z M309.257,304.543 C308.788,304.543 308.407,304.922 308.407,305.392 L308.407,352.058 C308.407,352.082 308.419,352.102 308.421,352.126 L304.094,352.126 C304.096,352.102 304.107,352.082 304.107,352.058 L304.107,305.392 C304.107,304.922 303.726,304.543 303.257,304.543 C302.788,304.543 302.407,304.922 302.407,305.392 L302.407,352.058 C302.407,352.082 302.419,352.102 302.421,352.126 L297.607,352.126 L297.607,301.242 L314.907,301.242 L314.907,352.126 L310.094,352.126 C310.096,352.102 310.107,352.082 310.107,352.058 L310.107,305.392 C310.107,304.922 309.726,304.543 309.257,304.543 L309.257,304.543 Z M330.924,352.126 L316.607,352.126 L316.607,294.058 C316.607,293.588 316.226,293.209 315.757,293.209 L297.607,293.209 L297.607,268.975 C297.607,268.505 297.226,268.126 296.757,268.126 L291.273,268.126 L291.273,164.725 C291.273,164.255 290.892,163.876 290.423,163.876 L285.523,163.876 L285.523,105.808 C285.523,105.338 285.142,104.958 284.673,104.958 L276.023,104.958 L276.023,90.225 C276.023,89.755 275.642,89.375 275.173,89.375 L269.023,89.375 L269.023,80.375 L261.971,80.375 L261.971,66.908 L258.633,66.908 L258.633,55.615 L256.891,55.615 L256.891,45.315 L256.82,45.315 C256.45,42.843 254.495,40.889 252.023,40.518 L252.023,0.85 C252.023,0.38 251.642,0 251.173,0 C250.704,0 250.323,0.38 250.323,0.85 L250.323,40.518 C247.851,40.889 245.897,42.843 245.526,45.315 L245.456,45.315 L245.456,55.615 L243.714,55.615 L243.714,66.908 L240.375,66.908 L240.375,80.375 L233.323,80.375 L233.323,89.375 L227.173,89.375 C226.704,89.375 226.323,89.755 226.323,90.225 L226.323,104.958 L217.673,104.958 C217.204,104.958 216.823,105.338 216.823,105.808 L216.823,163.876 L211.923,163.876 C211.454,163.876 211.073,164.255 211.073,164.725 L211.073,268.126 L206.59,268.126 C206.12,268.126 205.74,268.505 205.74,268.975 L205.74,293.209 L187.59,293.209 C187.12,293.209 186.74,293.588 186.74,294.058 L186.74,352.126 L172.423,352.126 C171.954,352.126 171.573,352.505 171.573,352.975 C171.573,353.445 171.954,353.825 172.423,353.825 L206.59,353.825 C207.059,353.825 207.44,353.445 207.44,352.975 L207.44,269.825 L237.74,269.825 L237.74,352.975 C237.74,353.445 238.12,353.825 238.59,353.825 C239.059,353.825 239.44,353.445 239.44,352.975 L239.44,346.908 L263.907,346.908 L263.907,352.975 C263.907,353.445 264.288,353.825 264.757,353.825 C265.226,353.825 265.607,353.445 265.607,352.975 L265.607,269.825 L295.907,269.825 L295.907,352.975 C295.907,353.445 296.288,353.825 296.757,353.825 L330.924,353.825 C331.392,353.825 331.773,353.445 331.773,352.975 C331.773,352.505 331.392,352.126 330.924,352.126 L330.924,352.126 Z" mask="url(#bg-build-b)"/>
    <path fill="#FFF" d="M227.1732 175.1256C226.7042 175.1256 226.3232 175.5056 226.3232 175.9756L226.3232 240.9756C226.3232 241.4446 226.7042 241.8246 227.1732 241.8246 227.6422 241.8246 228.0232 241.4446 228.0232 240.9756L228.0232 175.9756C228.0232 175.5056 227.6422 175.1256 227.1732 175.1256M235.1732 175.1256C234.7042 175.1256 234.3232 175.5056 234.3232 175.9756L234.3232 249.9756C234.3232 250.4446 234.7042 250.8246 235.1732 250.8246 235.6422 250.8246 236.0232 250.4446 236.0232 249.9756L236.0232 175.9756C236.0232 175.5056 235.6422 175.1256 235.1732 175.1256M267.1732 250.8248C267.6422 250.8248 268.0232 250.4448 268.0232 249.9748L268.0232 175.9748C268.0232 175.5058 267.6422 175.1258 267.1732 175.1258 266.7042 175.1258 266.3232 175.5058 266.3232 175.9748L266.3232 249.9748C266.3232 250.4448 266.7042 250.8248 267.1732 250.8248M275.1732 241.8248C275.6422 241.8248 276.0232 241.4448 276.0232 240.9748L276.0232 175.9748C276.0232 175.5058 275.6422 175.1258 275.1732 175.1258 274.7042 175.1258 274.3232 175.5058 274.3232 175.9748L274.3232 240.9748C274.3232 241.4448 274.7042 241.8248 275.1732 241.8248M219.1732 175.1256C218.7042 175.1256 218.3232 175.5056 218.3232 175.9756L218.3232 199.9756C218.3232 200.4446 218.7042 200.8246 219.1732 200.8246 219.6422 200.8246 220.0232 200.4446 220.0232 199.9756L220.0232 175.9756C220.0232 175.5056 219.6422 175.1256 219.1732 175.1256M219.1732 226.1256C218.7042 226.1256 218.3232 226.5056 218.3232 226.9756L218.3232 230.9756C218.3232 231.4446 218.7042 231.8246 219.1732 231.8246 219.6422 231.8246 220.0232 231.4446 220.0232 230.9756L220.0232 226.9756C220.0232 226.5056 219.6422 226.1256 219.1732 226.1256M219.1732 204.1256C218.7042 204.1256 218.3232 204.5056 218.3232 204.9756L218.3232 215.9756 218.3232 221.9756C218.3232 222.4446 218.7042 222.8246 219.1732 222.8246 219.6422 222.8246 220.0232 222.4446 220.0232 221.9756L220.0232 215.9756 220.0232 204.9756C220.0232 204.5056 219.6422 204.1256 219.1732 204.1256M283.1732 200.8248C283.6422 200.8248 284.0232 200.4448 284.0232 199.9748L284.0232 175.9748C284.0232 175.5058 283.6422 175.1258 283.1732 175.1258 282.7042 175.1258 282.3232 175.5058 282.3232 175.9748L282.3232 199.9748C282.3232 200.4448 282.7042 200.8248 283.1732 200.8248M283.1732 231.8248C283.6422 231.8248 284.0232 231.4448 284.0232 230.9748L284.0232 226.9748C284.0232 226.5058 283.6422 226.1258 283.1732 226.1258 282.7042 226.1258 282.3232 226.5058 282.3232 226.9748L282.3232 230.9748C282.3232 231.4448 282.7042 231.8248 283.1732 231.8248M283.1732 222.8248C283.6422 222.8248 284.0232 222.4448 284.0232 221.9748L284.0232 216.8498 284.0232 215.9748 284.0232 204.9748C284.0232 204.5058 283.6422 204.1258 283.1732 204.1258 282.7042 204.1258 282.3232 204.5058 282.3232 204.9748L282.3232 215.9748 282.3232 216.8498 282.3232 221.9748C282.3232 222.4448 282.7042 222.8248 283.1732 222.8248M206.5897 359.0631L188.3397 359.0631C187.8707 359.0631 187.4897 359.4431 187.4897 359.9131 187.4897 360.3821 187.8707 360.7621 188.3397 360.7621L206.5897 360.7621C207.0587 360.7621 207.4397 360.3821 207.4397 359.9131 207.4397 359.4431 207.0587 359.0631 206.5897 359.0631M315.0067 359.0631L296.7567 359.0631C296.2877 359.0631 295.9067 359.4431 295.9067 359.9131 295.9067 360.3821 296.2877 360.7621 296.7567 360.7621L315.0067 360.7621C315.4767 360.7621 315.8577 360.3821 315.8577 359.9131 315.8577 359.4431 315.4767 359.0631 315.0067 359.0631M280.7982 359.0631L212.5482 359.0631C212.0792 359.0631 211.6982 359.4431 211.6982 359.9131 211.6982 360.3821 212.0792 360.7621 212.5482 360.7621L280.7982 360.7621C281.2672 360.7621 281.6482 360.3821 281.6482 359.9131 281.6482 359.4431 281.2672 359.0631 280.7982 359.0631M268.7357 367.0006L234.6107 367.0006C234.1417 367.0006 233.7607 367.3806 233.7607 367.8506 233.7607 368.3196 234.1417 368.6996 234.6107 368.6996L268.7357 368.6996C269.2047 368.6996 269.5857 368.3196 269.5857 367.8506 269.5857 367.3806 269.2047 367.0006 268.7357 367.0006M288.7567 273.1256C288.2877 273.1256 287.9067 273.5056 287.9067 273.9756L287.9067 299.9756C287.9067 300.4446 288.2877 300.8246 288.7567 300.8246 289.2257 300.8246 289.6067 300.4446 289.6067 299.9756L289.6067 273.9756C289.6067 273.5056 289.2257 273.1256 288.7567 273.1256M288.7567 304.5211C288.2877 304.5211 287.9067 304.9011 287.9067 305.3711L287.9067 318.3711C287.9067 318.8401 288.2877 319.2201 288.7567 319.2201 289.2257 319.2201 289.6067 318.8401 289.6067 318.3711L289.6067 305.3711C289.6067 304.9011 289.2257 304.5211 288.7567 304.5211M346.6767 350.0865L346.6767 340.6255C346.6767 340.2115 346.3407 339.8755 345.9267 339.8755 345.5127 339.8755 345.1767 340.2115 345.1767 340.6255L345.1767 350.0865C340.2887 349.7015 336.4277 345.6085 336.4277 340.6255 336.4277 337.9925 337.5257 335.4775 339.4477 333.6815L339.6597 333.4935C340.4697 332.8075 340.9337 331.8075 340.9337 330.7475L340.9337 324.2915C340.9337 321.5385 343.1727 319.2985 345.9267 319.2985 348.6797 319.2985 350.9197 321.5385 350.9197 324.2915L350.9197 330.7475C350.9197 331.8125 351.3877 332.8165 352.1837 333.4845L352.4127 333.6905 352.4137 333.6905C354.3307 335.4845 355.4257 337.9965 355.4257 340.6255 355.4257 345.6085 351.5637 349.7015 346.6767 350.0865L346.6767 350.0865zM353.1537 332.3365L353.0387 332.2355C352.6437 331.8425 352.4197 331.3095 352.4197 330.7475L352.4197 324.2915C352.4197 320.7115 349.5067 317.7985 345.9267 317.7985 342.3457 317.7985 339.4337 320.7115 339.4337 324.2915L339.4337 330.7475C339.4337 331.3095 339.2097 331.8425 338.7957 332.2525L337.3937 333.6905C335.8107 335.6375 334.9277 338.0845 334.9277 340.6255 334.9277 346.4365 339.4617 351.1975 345.1767 351.5865L345.1767 359.4975 341.5757 359.4975C341.1617 359.4975 340.8257 359.8335 340.8257 360.2475 340.8257 360.6615 341.1617 360.9975 341.5757 360.9975L350.2777 360.9975C350.6917 360.9975 351.0277 360.6615 351.0277 360.2475 351.0277 359.8335 350.6917 359.4975 350.2777 359.4975L346.6767 359.4975 346.6767 351.5865C352.3917 351.1975 356.9257 346.4365 356.9257 340.6255 356.9257 338.0815 356.0407 335.6325 354.4537 333.6835L353.1537 332.3365zM251.1732 179.2457C251.5872 179.2457 251.9232 178.9097 251.9232 178.4957L251.9232 148.4957C251.9232 148.0817 251.5872 147.7457 251.1732 147.7457 250.7592 147.7457 250.4232 148.0817 250.4232 148.4957L250.4232 178.4957C250.4232 178.9097 250.7592 179.2457 251.1732 179.2457M371.0605 365.3102L371.0605 356.2872C371.0605 355.8722 370.7245 355.5372 370.3105 355.5372 369.8965 355.5372 369.5605 355.8722 369.5605 356.2872L369.5605 365.3102C365.1485 364.9282 361.6735 361.2202 361.6735 356.7112 361.6735 351.9492 365.5475 348.0742 370.3105 348.0742 375.0735 348.0742 378.9485 351.9492 378.9485 356.7112 378.9485 361.2202 375.4725 364.9282 371.0605 365.3102M370.3105 346.5742C364.7205 346.5742 360.1735 351.1222 360.1735 356.7112 360.1735 362.0472 364.3215 366.4232 369.5605 366.8102L369.5605 375.1602 365.9595 375.1602C365.5455 375.1602 365.2095 375.4962 365.2095 375.9102 365.2095 376.3242 365.5455 376.6602 365.9595 376.6602L374.6615 376.6602C375.0755 376.6602 375.4115 376.3242 375.4115 375.9102 375.4115 375.4962 375.0755 375.1602 374.6615 375.1602L371.0605 375.1602 371.0605 366.8102C376.3005 366.4232 380.4485 362.0472 380.4485 356.7112 380.4485 351.1222 375.9005 346.5742 370.3105 346.5742" mask="url(#bg-build-b)"/>
    <path fill="#F9FD26" d="M321.6386,119.7858 L320.3396,120.4958 L321.6386,121.2058 C321.8456,121.3198 322.0166,121.4898 322.1296,121.6978 L322.8396,122.9958 L323.5496,121.6978 C323.6636,121.4898 323.8336,121.3198 324.0416,121.2058 L325.3396,120.4958 L324.0416,119.7858 C323.8336,119.6718 323.6636,119.5018 323.5496,119.2938 L322.8396,117.9958 L322.1296,119.2938 C322.0166,119.5018 321.8456,119.6718 321.6386,119.7858" mask="url(#bg-build-b)"/>
    <path fill="#2282C4" d="M353.6493,178.6764 L354.3593,179.9754 L355.0703,178.6764 C355.1833,178.4694 355.3543,178.2984 355.5613,178.1854 L356.8593,177.4754 L355.5613,176.7654 C355.3543,176.6514 355.1833,176.4814 355.0703,176.2734 L354.3593,174.9754 L353.6493,176.2734 C353.5363,176.4814 353.3653,176.6514 353.1583,176.7654 L351.8593,177.4754 L353.1583,178.1854 C353.3653,178.2984 353.5363,178.4694 353.6493,178.6764" mask="url(#bg-build-b)"/>
    <path fill="#2E8DB5" d="M419.6737,231.6569 L420.6677,233.4749 L421.6617,231.6569 C421.8197,231.3669 422.0597,231.1279 422.3497,230.9699 L424.1677,229.9749 L422.3507,228.9809 C422.0597,228.8219 421.8197,228.5829 421.6607,228.2929 L420.6677,226.4749 L419.6737,228.2929 C419.5147,228.5829 419.2757,228.8219 418.9857,228.9809 L417.1677,229.9749 L418.9857,230.9699 C419.2757,231.1279 419.5147,231.3669 419.6737,231.6569" mask="url(#bg-build-b)"/>
    <path fill="#9CE53C" d="M539.3973,194.6237 L540.2503,196.1817 L541.1013,194.6237 C541.2383,194.3747 541.4423,194.1697 541.6913,194.0337 L543.2503,193.1817 L541.6923,192.3297 C541.4433,192.1927 541.2383,191.9877 541.1013,191.7387 L540.2503,190.1817 L539.3973,191.7387 C539.2613,191.9877 539.0563,192.1927 538.8073,192.3297 L537.2503,193.1817 L538.8073,194.0337 C539.0563,194.1697 539.2613,194.3747 539.3973,194.6237" mask="url(#bg-build-b)"/>
    <path fill="#F9FD26" d="M205.454 17.3703L206.59 19.4483 207.726 17.3703C207.908 17.0383 208.181 16.7663 208.513 16.5843L210.59 15.4483 208.513 14.3123C208.181 14.1303 207.908 13.8573 207.726 13.5253L206.59 11.4483 205.454 13.5253C205.272 13.8573 204.999 14.1303 204.667 14.3113L202.59 15.4483 204.667 16.5843C204.999 16.7663 205.272 17.0383 205.454 17.3703M467.5839 147.3971L468.7209 149.4751 469.8559 147.3971C470.0379 147.0651 470.3109 146.7931 470.6429 146.6111L472.7209 145.4751 470.6439 144.3391C470.3119 144.1571 470.0379 143.8841 469.8559 143.5521L468.7209 141.4751 467.5839 143.5521C467.4019 143.8841 467.1299 144.1571 466.7979 144.3391L464.7209 145.4751 466.7979 146.6111C467.1299 146.7931 467.4019 147.0651 467.5839 147.3971" mask="url(#bg-build-b)"/>
    <path fill="#3B97A7" d="M172.7152,147.1412 L171.6762,146.5732 C171.5102,146.4822 171.3742,146.3462 171.2832,146.1802 L170.7152,145.1412 L170.1472,146.1802 C170.0562,146.3462 169.9202,146.4822 169.7532,146.5732 L168.7152,147.1412 L169.7532,147.7092 C169.9202,147.8002 170.0562,147.9372 170.1472,148.1032 L170.7152,149.1412 L171.2832,148.1032 C171.3742,147.9372 171.5102,147.8002 171.6762,147.7092 L172.7152,147.1412 Z" mask="url(#bg-build-b)"/>
    <path fill="#3E91B1" d="M300.0067,41.4367 C301.1107,41.4367 302.0067,40.5407 302.0067,39.4367 C302.0067,38.3327 301.1107,37.4367 300.0067,37.4367 C298.9027,37.4367 298.0067,38.3327 298.0067,39.4367 C298.0067,40.5407 298.9027,41.4367 300.0067,41.4367" mask="url(#bg-build-b)"/>
    <path fill="#2988BC" d="M358.4062,224.9537 C357.5782,224.9537 356.9062,225.6257 356.9062,226.4537 C356.9062,227.2827 357.5782,227.9537 358.4062,227.9537 C359.2342,227.9537 359.9062,227.2827 359.9062,226.4537 C359.9062,225.6257 359.2342,224.9537 358.4062,224.9537" mask="url(#bg-build-b)"/>
    <path fill="#9CE53C" d="M176.2792 101.7247C177.1082 101.7247 177.7792 101.0537 177.7792 100.2247 177.7792 99.3967 177.1082 98.7247 176.2792 98.7247 175.4502 98.7247 174.7792 99.3967 174.7792 100.2247 174.7792 101.0537 175.4502 101.7247 176.2792 101.7247M449.6444 208.4752C450.4734 208.4752 451.1444 207.8032 451.1444 206.9752 451.1444 206.1462 450.4734 205.4752 449.6444 205.4752 448.8164 205.4752 448.1444 206.1462 448.1444 206.9752 448.1444 207.8032 448.8164 208.4752 449.6444 208.4752" mask="url(#bg-build-b)"/>
    <path fill="#FFF" d="M391.7392 120.6486L392.0132 121.0496 392.4922 120.9636C398.4472 119.8866 404.2732 122.7266 407.2182 127.8046L402.4192 127.8046C402.0052 127.8046 401.6692 128.1406 401.6692 128.5546 401.6692 128.9686 402.0052 129.3046 402.4192 129.3046L416.3812 129.3046C416.7952 129.3046 417.1312 128.9686 417.1312 128.5546 417.1312 128.1406 416.7952 127.8046 416.3812 127.8046L408.5372 127.8046C408.6532 127.5846 408.6712 127.3156 408.5372 127.0836 405.3632 121.5836 399.0602 118.4526 392.6982 119.4096 390.2182 116.0516 386.2892 114.0616 382.0912 114.0616 374.9962 114.0616 369.2062 119.6856 368.9052 126.7086L358.0712 126.7086C357.6572 126.7086 357.3212 127.0436 357.3212 127.4586 357.3212 127.8726 357.6572 128.2086 358.0712 128.2086L375.0332 128.2086C375.4472 128.2086 375.7832 127.8726 375.7832 127.4586 375.7832 127.0436 375.4472 126.7086 375.0332 126.7086L370.4052 126.7086C370.7042 120.5136 375.8232 115.5616 382.0912 115.5616 385.9542 115.5616 389.5612 117.4626 391.7392 120.6486M419.9364 128.7042C419.9364 129.1182 420.2724 129.4542 420.6864 129.4542L427.6484 129.4542C428.0624 129.4542 428.3984 129.1182 428.3984 128.7042 428.3984 128.2902 428.0624 127.9542 427.6484 127.9542L420.6864 127.9542C420.2724 127.9542 419.9364 128.2902 419.9364 128.7042M412.2138 132.7042C412.2138 132.2902 411.8778 131.9542 411.4638 131.9542L391.3728 131.9542C390.9588 131.9542 390.6228 132.2902 390.6228 132.7042 390.6228 133.1182 390.9588 133.4542 391.3728 133.4542L411.4638 133.4542C411.8778 133.4542 412.2138 133.1182 412.2138 132.7042M167.8397 352.2252L157.8397 352.2252C157.4257 352.2252 157.0897 352.5612 157.0897 352.9752 157.0897 353.3892 157.4257 353.7252 157.8397 353.7252L167.8397 353.7252C168.2537 353.7252 168.5897 353.3892 168.5897 352.9752 168.5897 352.5612 168.2537 352.2252 167.8397 352.2252M536.826 240.0397L539.994 228.4887 548.174 228.4887 543.868 245.6307 536.826 240.0397zM541.376 255.5497L534.325 249.1567 536.394 241.6117 543.467 247.2267 541.376 255.5497zM539.074 264.7137L532.111 257.2297 533.881 250.7787 540.962 257.1987 539.074 264.7137zM536.922 273.2817L530.06 264.7057 531.644 258.9307 538.638 266.4467 536.922 273.2817zM559.43 346.6947L544.571 346.6947 532.159 288.0317 535.924 288.0317C536.338 288.0317 536.674 287.6957 536.674 287.2817 536.674 286.8677 536.338 286.5317 535.924 286.5317L531.842 286.5317 528.46 270.5447 529.57 266.4947 536.608 275.2927 559.43 346.6947zM558.423 353.0427L557.396 348.1947 559.669 348.1947C559.749 348.1947 559.822 348.1727 559.894 348.1487L561.459 353.0427 558.423 353.0427zM550.713 348.1947L551.738 353.0427 549.161 353.0427 548.136 348.1947 550.713 348.1947zM553.8 348.1947L554.825 353.0427 552.248 353.0427 551.222 348.1947 553.8 348.1947zM556.887 348.1947L557.913 353.0427 555.335 353.0427 554.309 348.1947 556.887 348.1947zM544.889 348.1947L547.626 348.1947 548.651 353.0427 545.915 353.0427 544.889 348.1947zM520.761 286.5317L524.306 270.9957C524.331 270.8867 524.331 270.7727 524.306 270.6647L520.944 255.7117 528.412 265.0467 526.965 270.3237C526.933 270.4387 526.93 270.5607 526.955 270.6777L530.309 286.5317 520.761 286.5317zM501.612 353.0427L503.062 348.1947 505.151 348.1947 504.046 353.0427 501.612 353.0427zM491.83 348.1947L493.843 348.1947 492.392 353.0427 490.381 353.0427 491.83 348.1947zM500.18 348.1947L502.541 348.1947 501.091 353.0427 498.729 353.0427 500.18 348.1947zM497.297 348.1947L499.658 348.1947 498.208 353.0427 495.847 353.0427 497.297 348.1947zM496.775 348.1947L495.325 353.0427 492.914 353.0427 494.364 348.1947 496.775 348.1947zM506.883 228.4887L513.287 228.4887 522.806 270.8277 505.494 346.6947 499.561 346.6947 509.77 308.8997C509.879 308.5007 509.642 308.0887 509.242 307.9807 508.842 307.8687 508.431 308.1087 508.323 308.5097L498.009 346.6947 492.279 346.6947 515.387 269.4407C515.422 269.3207 515.428 269.1947 515.402 269.0717L506.883 228.4887zM511.931 222.4597L512.949 226.9887 506.567 226.9887 505.617 222.4597 511.931 222.4597zM515.667 232.2407L514.658 227.7527C514.658 227.7477 514.661 227.7437 514.661 227.7387 514.661 227.6227 514.63 227.5167 514.583 227.4187L513.728 223.6177 535.117 240.5987 533.079 248.0277 515.667 232.2407zM517.836 241.8887L516.239 234.7847 532.635 249.6487 530.91 255.9387 517.836 241.8887zM518.489 244.7907L530.443 257.6397 528.902 263.2577 520.193 252.3697 518.489 244.7907zM541.648 222.4597L549.688 222.4597 548.551 226.9887 540.406 226.9887 541.648 222.4597zM759.608 353.0427L751.092 353.0427 551.063 221.0837C551.048 221.0727 551.029 221.0717 551.014 221.0627 550.976 221.0427 550.938 221.0307 550.898 221.0167 550.834 220.9937 550.772 220.9777 550.707 220.9727 550.686 220.9707 550.67 220.9597 550.65 220.9597L541.076 220.9597C540.738 220.9597 540.442 221.1857 540.352 221.5117L535.549 239.0247 512.998 221.1227C512.994 221.1197 512.99 221.1187 512.986 221.1167 512.917 221.0627 512.839 221.0237 512.755 220.9977 512.719 220.9867 512.683 220.9847 512.647 220.9787 512.608 220.9737 512.571 220.9597 512.531 220.9597L504.693 220.9597C504.679 220.9597 504.667 220.9677 504.653 220.9687 504.585 220.9727 504.52 220.9907 504.455 221.0137 504.422 221.0237 504.387 221.0277 504.355 221.0447 504.27 221.0867 504.194 221.1467 504.128 221.2237 504.123 221.2287 504.116 221.2307 504.111 221.2367 504.11 221.2367 504.11 221.2377 504.11 221.2377 504.109 221.2397 504.107 221.2397 504.106 221.2417L399.235 352.7977 387.389 352.7977C386.974 352.7977 386.639 353.1337 386.639 353.5477 386.639 353.9617 386.974 354.2977 387.389 354.2977L399.597 354.2977C399.706 354.2977 399.808 354.2707 399.902 354.2287 399.928 354.2177 399.948 354.1957 399.972 354.1827 400.04 354.1427 400.101 354.0977 400.153 354.0387 400.162 354.0287 400.175 354.0247 400.183 354.0157L504.286 223.4237 506.706 234.9497 414.325 353.3317C414.07 353.6577 414.128 354.1297 414.455 354.3837 414.592 354.4907 414.755 354.5427 414.916 354.5427 415.139 354.5427 415.359 354.4437 415.508 354.2537L507.108 236.8687 508.76 244.7347C508.481 244.6797 508.183 244.7797 508.007 245.0247L428.917 353.3507C428.673 353.6857 428.746 354.1537 429.08 354.3977 429.214 354.4957 429.368 354.5427 429.521 354.5427 429.753 354.5427 429.981 354.4357 430.128 354.2347L509.054 246.1347 510.506 253.0547 448.48 352.9067C448.262 353.2587 448.369 353.7217 448.722 353.9387 448.845 354.0167 448.981 354.0527 449.116 354.0527 449.367 354.0527 449.612 353.9267 449.754 353.6977L510.952 255.1787 513.894 269.1937 488.814 353.0427 466.723 353.0427C466.308 353.0427 465.973 353.3787 465.973 353.7927 465.973 354.2067 466.308 354.5427 466.723 354.5427L489.365 354.5427 489.366 354.5427 489.368 354.5427 489.371 354.5427 489.374 354.5427 504.629 354.5427 504.644 354.5427 527.347 354.5427C527.762 354.5427 528.097 354.2067 528.097 353.7927 528.097 353.3787 527.762 353.0427 527.347 353.0427L505.584 353.0427 520.419 288.0317 530.627 288.0317 544.573 353.9477C544.646 354.2947 545.04 354.5427 545.394 354.5427L562.407 354.5427C562.821 354.5427 563.157 354.2067 563.157 353.7927 563.157 353.7507 563.154 353.7097 563.147 353.6707 563.166 353.5567 563.159 353.4357 563.122 353.3187L539.231 278.5707 599.584 354.0167C599.732 354.2007 599.95 354.2977 600.17 354.2977 600.335 354.2977 600.5 354.2437 600.639 354.1337 600.962 353.8747 601.014 353.4017 600.756 353.0787L538.098 274.7537 539.856 267.7567 619.928 353.8127C620.075 353.9727 620.275 354.0527 620.476 354.0527 620.659 354.0527 620.843 353.9857 620.987 353.8517 621.291 353.5687 621.307 353.0947 621.025 352.7917L540.292 266.0227 542.222 258.3417 648.117 354.3487C648.261 354.4777 648.441 354.5427 648.621 354.5427 648.825 354.5427 649.028 354.4597 649.177 354.2967 649.455 353.9897 649.431 353.5157 649.125 353.2367L542.636 256.6917 544.757 248.2507 678.436 354.3797C678.575 354.4897 678.739 354.5427 678.902 354.5427 679.124 354.5427 679.343 354.4447 679.49 354.2597 679.748 353.9347 679.694 353.4627 679.37 353.2057L545.157 246.6537 547.442 237.5567 711.6 354.4037C711.732 354.4977 711.884 354.5427 712.034 354.5427 712.268 354.5427 712.5 354.4337 712.646 354.2277 712.887 353.8907 712.807 353.4217 712.47 353.1817L547.835 235.9947 551.12 222.9177 750.454 354.4187C750.479 354.4357 750.508 354.4417 750.534 354.4557 750.558 354.4687 750.581 354.4797 750.607 354.4897 750.691 354.5207 750.778 354.5427 750.866 354.5427L750.867 354.5427 759.608 354.5427C760.022 354.5427 760.358 354.2067 760.358 353.7927 760.358 353.3787 760.022 353.0427 759.608 353.0427L759.608 353.0427zM772.9413 353.0426L764.2003 353.0426C763.7863 353.0426 763.4503 353.3786 763.4503 353.7926 763.4503 354.2066 763.7863 354.5426 764.2003 354.5426L772.9413 354.5426C773.3553 354.5426 773.6913 354.2066 773.6913 353.7926 773.6913 353.3786 773.3553 353.0426 772.9413 353.0426M538.0975 362.3131C538.0975 361.8991 537.7615 361.5631 537.3475 361.5631L476.7225 361.5631C476.3085 361.5631 475.9725 361.8991 475.9725 362.3131 475.9725 362.7271 476.3085 363.0631 476.7225 363.0631L537.3475 363.0631C537.7615 363.0631 538.0975 362.7271 538.0975 362.3131M577.3475 369.5631L516.7225 369.5631C516.3085 369.5631 515.9725 369.8991 515.9725 370.3131 515.9725 370.7271 516.3085 371.0631 516.7225 371.0631L577.3475 371.0631C577.7615 371.0631 578.0975 370.7271 578.0975 370.3131 578.0975 369.8991 577.7615 369.5631 577.3475 369.5631" mask="url(#bg-build-b)"/>
    <path fill="#FFF" d="M511.8857 298.194C511.4877 298.083 511.0737 298.322 510.9667 298.722L509.5617 303.925C509.4527 304.325 509.6897 304.737 510.0897 304.844 510.1557 304.863 510.2207 304.871 510.2847 304.871 510.6157 304.871 510.9187 304.651 511.0087 304.316L512.4137 299.113C512.5227 298.714 512.2857 298.301 511.8857 298.194M115.5834 32.4122C115.5834 24.2792 122.2044 17.6622 130.3434 17.6622 131.7664 17.6622 133.1544 17.8602 134.4734 18.2522 140.7264 20.0742 145.0934 25.8972 145.0934 32.4122 145.0934 34.0922 144.8124 35.7382 144.2584 37.3142 143.8354 37.2732 143.3954 37.2522 142.9434 37.2522 138.7464 37.2522 134.8154 39.2412 132.3324 42.5982 131.5414 42.4792 130.7914 42.4222 130.0534 42.4222 127.2384 42.4222 124.4874 43.1822 122.0644 44.6242 117.9974 41.8782 115.5834 37.3472 115.5834 32.4122M123.3604 51.7432C123.3604 51.3292 123.0244 50.9932 122.6104 50.9932L117.8094 50.9932C118.9484 49.0282 120.5524 47.3522 122.4514 46.1482L122.4564 46.1442C124.7364 44.6902 127.3634 43.9222 130.0534 43.9222 130.8484 43.9222 131.6634 43.9972 132.5434 44.1512L133.0194 44.2342 133.2914 43.8362C135.4734 40.6522 139.0814 38.7522 142.9434 38.7522 143.5414 38.7522 144.1114 38.7932 144.6404 38.8732L144.6434 38.8732C144.6444 38.8732 144.6444 38.8742 144.6454 38.8742 150.1624 39.6812 154.3554 44.3682 154.6264 49.8952L149.9964 49.8952C149.5824 49.8952 149.2464 50.2312 149.2464 50.6452 149.2464 51.0592 149.5824 51.3952 149.9964 51.3952L166.9584 51.3952C167.3724 51.3952 167.7084 51.0592 167.7084 50.6452 167.7084 50.2312 167.3724 49.8952 166.9584 49.8952L156.1274 49.8952C155.8674 43.9272 151.5504 38.8232 145.7414 37.5602 146.2954 35.8992 146.5934 34.1742 146.5934 32.4122 146.5934 25.2352 141.7814 18.8202 134.8964 16.8132 133.4424 16.3812 131.9114 16.1622 130.3434 16.1622 121.3774 16.1622 114.0834 23.4522 114.0834 32.4122 114.0834 37.6542 116.5564 42.4802 120.7494 45.5312 119.0364 46.8012 117.5674 48.4062 116.4934 50.2672 116.3594 50.5022 116.3764 50.7722 116.4964 50.9932L108.6484 50.9932C108.2344 50.9932 107.8984 51.3292 107.8984 51.7432 107.8984 52.1572 108.2344 52.4932 108.6484 52.4932L122.6104 52.4932C123.0244 52.4932 123.3604 52.1572 123.3604 51.7432M104.3427 51.1417L97.3807 51.1417C96.9667 51.1417 96.6307 51.4777 96.6307 51.8917 96.6307 52.3057 96.9667 52.6417 97.3807 52.6417L104.3427 52.6417C104.7567 52.6417 105.0927 52.3057 105.0927 51.8917 105.0927 51.4777 104.7567 51.1417 104.3427 51.1417M134.4061 55.8917C134.4061 55.4777 134.0701 55.1417 133.6561 55.1417L113.5651 55.1417C113.1511 55.1417 112.8151 55.4777 112.8151 55.8917 112.8151 56.3057 113.1511 56.6417 113.5651 56.6417L133.6561 56.6417C134.0701 56.6417 134.4061 56.3057 134.4061 55.8917" mask="url(#bg-build-b)"/>
    <path fill="#3F93DB" d="M144.2792,207.5739 C144.2792,208.6779 145.1752,209.5739 146.2792,209.5739 C147.3832,209.5739 148.2792,208.6779 148.2792,207.5739 C148.2792,206.4699 147.3832,205.5739 146.2792,205.5739 C145.1752,205.5739 144.2792,206.4699 144.2792,207.5739" mask="url(#bg-build-b)"/>
    <path fill="#9CE53C" d="M387.8593 80.9025C388.6883 80.9025 389.3593 80.2305 389.3593 79.4025 389.3593 78.5735 388.6883 77.9025 387.8593 77.9025 387.0313 77.9025 386.3593 78.5735 386.3593 79.4025 386.3593 80.2305 387.0313 80.9025 387.8593 80.9025M475.7216 92.5167C476.5506 92.5167 477.2216 91.8447 477.2216 91.0167 477.2216 90.1877 476.5506 89.5167 475.7216 89.5167 474.8936 89.5167 474.2216 90.1877 474.2216 91.0167 474.2216 91.8447 474.8936 92.5167 475.7216 92.5167" mask="url(#bg-build-b)"/>
    <path fill="#3E91B1" d="M420.6679,21.4479 C421.7719,21.4479 422.6679,20.5519 422.6679,19.4479 C422.6679,18.3439 421.7719,17.4479 420.6679,17.4479 C419.5639,17.4479 418.6679,18.3439 418.6679,19.4479 C418.6679,20.5519 419.5639,21.4479 420.6679,21.4479" mask="url(#bg-build-b)"/>
    <path fill="#FFF" d="M507.247,45.7306 C508.351,45.7306 509.247,44.8356 509.247,43.7306 C509.247,42.6266 508.351,41.7306 507.247,41.7306 C506.143,41.7306 505.247,42.6266 505.247,43.7306 C505.247,44.8356 506.143,45.7306 507.247,45.7306" mask="url(#bg-build-b)"/>
    <path fill="#F9FD26" d="M84.2328,141.2623 L83.3808,139.7043 L82.5288,141.2623 C82.3928,141.5113 82.1878,141.7163 81.9388,141.8523 L80.3808,142.7043 L81.9398,143.5563 C82.1878,143.6923 82.3928,143.8973 82.5288,144.1463 L83.3808,145.7043 L84.2328,144.1463 C84.3698,143.8973 84.5738,143.6923 84.8228,143.5563 L86.3808,142.7043 L84.8228,141.8523 C84.5738,141.7163 84.3688,141.5113 84.2328,141.2623" mask="url(#bg-build-b)"/>
    <path fill="#9CE53C" d="M1.4999 168.1871C.6719 168.1871-.0001 168.8581-.0001 169.6871-.0001 170.5151.6719 171.1871 1.4999 171.1871 2.3289 171.1871 2.9999 170.5151 2.9999 169.6871 2.9999 168.8581 2.3289 168.1871 1.4999 168.1871M79.3622 189.8004C78.5332 189.8004 77.8622 190.4724 77.8622 191.3004 77.8622 192.1294 78.5332 192.8004 79.3622 192.8004 80.1912 192.8004 80.8622 192.1294 80.8622 191.3004 80.8622 190.4724 80.1912 189.8004 79.3622 189.8004" mask="url(#bg-build-b)"/>
    <path fill="#F9FD26" d="M34.3075,107.7321 C33.2035,107.7321 32.3075,108.6281 32.3075,109.7321 C32.3075,110.8371 33.2035,111.7321 34.3075,111.7321 C35.4125,111.7321 36.3075,110.8371 36.3075,109.7321 C36.3075,108.6281 35.4125,107.7321 34.3075,107.7321" mask="url(#bg-build-b)"/>
    <path fill="#FFF" d="M128.8876,154.0153 C128.8876,155.1193 129.7836,156.0153 130.8876,156.0153 C131.9916,156.0153 132.8876,155.1193 132.8876,154.0153 C132.8876,152.9113 131.9916,152.0153 130.8876,152.0153 C129.7836,152.0153 128.8876,152.9113 128.8876,154.0153" mask="url(#bg-build-b)"/>
    <path fill="#1F7FC9" d="M489.1269,149.1012 C489.9559,149.1012 490.6269,148.4302 490.6269,147.6012 C490.6269,146.7732 489.9559,146.1012 489.1269,146.1012 C488.2989,146.1012 487.6269,146.7732 487.6269,147.6012 C487.6269,148.4302 488.2989,149.1012 489.1269,149.1012" mask="url(#bg-build-b)"/>
    <path fill="#2282C4" d="M546.9891,160.7155 C547.8181,160.7155 548.4891,160.0435 548.4891,159.2155 C548.4891,158.3875 547.8181,157.7155 546.9891,157.7155 C546.1611,157.7155 545.4891,158.3875 545.4891,159.2155 C545.4891,160.0435 546.1611,160.7155 546.9891,160.7155" mask="url(#bg-build-b)"/>
    <path fill="#2984C2" d="M521.9354,89.6471 C523.0394,89.6471 523.9354,88.7511 523.9354,87.6471 C523.9354,86.5431 523.0394,85.6471 521.9354,85.6471 C520.8304,85.6471 519.9354,86.5431 519.9354,87.6471 C519.9354,88.7511 520.8304,89.6471 521.9354,89.6471" mask="url(#bg-build-b)"/>
    <path fill="#2B86D7" d="M576.5145,111.9298 C576.5145,113.0338 577.4105,113.9298 578.5145,113.9298 C579.6185,113.9298 580.5145,113.0338 580.5145,111.9298 C580.5145,110.8258 579.6185,109.9298 578.5145,109.9298 C577.4105,109.9298 576.5145,110.8258 576.5145,111.9298" mask="url(#bg-build-b)"/>
    <path fill="#3F93DB" d="M320.3398 77.6959C321.4438 77.6959 322.3398 76.7999 322.3398 75.6959 322.3398 74.5919 321.4438 73.6959 320.3398 73.6959 319.2358 73.6959 318.3398 74.5919 318.3398 75.6959 318.3398 76.7999 319.2358 77.6959 320.3398 77.6959M411.4638 190.4752C412.5678 190.4752 413.4638 189.5792 413.4638 188.4752 413.4638 187.3712 412.5678 186.4752 411.4638 186.4752 410.3598 186.4752 409.4638 187.3712 409.4638 188.4752 409.4638 189.5792 410.3598 190.4752 411.4638 190.4752" mask="url(#bg-build-b)"/>
    <path fill="#FFF" d="M552.035 363.0631C552.449 363.0631 552.785 362.7271 552.785 362.3131 552.785 361.8991 552.449 361.5631 552.035 361.5631L542.035 361.5631C541.621 361.5631 541.285 361.8991 541.285 362.3131 541.285 362.7271 541.621 363.0631 542.035 363.0631L552.035 363.0631zM140.0287 363.8131L140.0287 354.3521C140.0287 353.9381 139.6927 353.6021 139.2787 353.6021 138.8647 353.6021 138.5287 353.9381 138.5287 354.3521L138.5287 363.8131C133.6417 363.4281 129.7797 359.3351 129.7797 354.3521 129.7797 351.7191 130.8777 349.2041 132.8007 347.4081L133.0127 347.2201C133.8217 346.5341 134.2857 345.5341 134.2857 344.4741L134.2857 338.0181C134.2857 335.2651 136.5257 333.0251 139.2787 333.0251 142.0317 333.0251 144.2717 335.2651 144.2717 338.0181L144.2717 344.4741C144.2717 345.5391 144.7397 346.5431 145.5357 347.2111L145.7657 347.4171 145.7657 347.4171C147.6837 349.2111 148.7777 351.7231 148.7777 354.3521 148.7777 359.3351 144.9167 363.4281 140.0287 363.8131L140.0287 363.8131zM146.5057 346.0631L146.3917 345.9621C145.9957 345.5691 145.7717 345.0361 145.7717 344.4741L145.7717 338.0181C145.7717 334.4381 142.8597 331.5251 139.2787 331.5251 135.6977 331.5251 132.7857 334.4381 132.7857 338.0181L132.7857 344.4741C132.7857 345.0361 132.5617 345.5691 132.1477 345.9791L130.7457 347.4171C129.1627 349.3641 128.2797 351.8111 128.2797 354.3521 128.2797 360.1631 132.8137 364.9241 138.5287 365.3131L138.5287 373.2241 134.9277 373.2241C134.5137 373.2241 134.1777 373.5601 134.1777 373.9741 134.1777 374.3881 134.5137 374.7241 134.9277 374.7241L143.6297 374.7241C144.0437 374.7241 144.3797 374.3881 144.3797 373.9741 144.3797 373.5601 144.0437 373.2241 143.6297 373.2241L140.0287 373.2241 140.0287 365.3131C145.7437 364.9241 150.2777 360.1631 150.2777 354.3521 150.2777 351.8081 149.3927 349.3591 147.8067 347.4101L146.5057 346.0631zM781.6776 356.7643C781.6776 354.1313 782.7756 351.6163 784.6986 349.8203L784.9096 349.6323C785.7196 348.9463 786.1836 347.9463 786.1836 346.8863L786.1836 340.4303C786.1836 337.6773 788.4226 335.4373 791.1766 335.4373 793.9296 335.4373 796.1696 337.6773 796.1696 340.4303L796.1696 346.8863C796.1696 347.9513 796.6376 348.9553 797.4336 349.6233L797.6626 349.8283 797.6636 349.8283C799.5806 351.6233 800.6756 354.1353 800.6756 356.7643 800.6756 361.7473 796.8136 365.8403 791.9266 366.2253L791.9266 356.7643C791.9266 356.3503 791.5906 356.0143 791.1766 356.0143 790.7626 356.0143 790.4266 356.3503 790.4266 356.7643L790.4266 366.2253C785.5386 365.8403 781.6776 361.7473 781.6776 356.7643M802.1756 356.7643C802.1756 354.2203 801.2906 351.7713 799.7036 349.8223L798.4036 348.4753 798.2886 348.3743C797.8936 347.9813 797.6696 347.4483 797.6696 346.8863L797.6696 340.4303C797.6696 336.8503 794.7566 333.9373 791.1766 333.9373 787.5956 333.9373 784.6836 336.8503 784.6836 340.4303L784.6836 346.8863C784.6836 347.4483 784.4596 347.9813 784.0456 348.3913L782.6436 349.8283C781.0606 351.7763 780.1776 354.2233 780.1776 356.7643 780.1776 362.5753 784.7116 367.3363 790.4266 367.7253L790.4266 375.6363 786.8256 375.6363C786.4116 375.6363 786.0756 375.9723 786.0756 376.3863 786.0756 376.8003 786.4116 377.1363 786.8256 377.1363L795.5276 377.1363C795.9416 377.1363 796.2776 376.8003 796.2776 376.3863 796.2776 375.9723 795.9416 375.6363 795.5276 375.6363L791.9266 375.6363 791.9266 367.7253C797.6416 367.3363 802.1756 362.5753 802.1756 356.7643" mask="url(#bg-build-b)"/>
    <g fill="#FFF" mask="url(#bg-build-b)">
      <g transform="translate(529.472 53.157)">
        <path d="M46.75,12.9082 L34.25,12.9082 C33.836,12.9082 33.5,12.5722 33.5,12.1582 C33.5,11.7442 33.836,11.4082 34.25,11.4082 L46.75,11.4082 C46.886,11.4082 47,11.2942 47,11.1582 L47,10.1582 C47,10.0222 46.886,9.9082 46.75,9.9082 L1.75,9.9082 C1.614,9.9082 1.5,10.0222 1.5,10.1582 L1.5,11.1582 C1.5,11.2942 1.614,11.4082 1.75,11.4082 L14.25,11.4082 C14.664,11.4082 15,11.7442 15,12.1582 C15,12.5722 14.664,12.9082 14.25,12.9082 L1.75,12.9082 C0.785,12.9082 0,12.1232 0,11.1582 L0,10.1582 C0,9.1932 0.785,8.4082 1.75,8.4082 L46.75,8.4082 C47.715,8.4082 48.5,9.1932 48.5,10.1582 L48.5,11.1582 C48.5,12.1232 47.715,12.9082 46.75,12.9082"/>
        <path d="M33.25 17.9082L15.25 17.9082C14.285 17.9082 13.5 17.1232 13.5 16.1582L13.5 12.1582C13.5 11.7442 13.836 11.4082 14.25 11.4082 14.664 11.4082 15 11.7442 15 12.1582L15 16.1582C15 16.2942 15.114 16.4082 15.25 16.4082L33.25 16.4082C33.386 16.4082 33.5 16.2942 33.5 16.1582L33.5 12.1582C33.5 11.7442 33.836 11.4082 34.25 11.4082 34.664 11.4082 35 11.7442 35 12.1582L35 16.1582C35 17.1232 34.215 17.9082 33.25 17.9082M10.25 9.9082C9.836 9.9082 9.5 9.5722 9.5 9.1582L9.5 5.5002 4 5.5002 4 9.1582C4 9.5722 3.664 9.9082 3.25 9.9082 2.836 9.9082 2.5 9.5722 2.5 9.1582L2.5 5.3422C2.5 4.6012 3.102 4.0002 3.842 4.0002L9.658 4.0002C10.398 4.0002 11 4.6012 11 5.3422L11 9.1582C11 9.5722 10.664 9.9082 10.25 9.9082"/>
        <path d="M6.75 5.5C6.336 5.5 6 5.164 6 4.75L6 1.5.75 1.5C.336 1.5 0 1.164 0 .75 0 .336.336 0 .75 0L12.75 0C13.164 0 13.5.336 13.5.75 13.5 1.164 13.164 1.5 12.75 1.5L7.5 1.5 7.5 4.75C7.5 5.164 7.164 5.5 6.75 5.5M45.25 9.9082C44.836 9.9082 44.5 9.5722 44.5 9.1582L44.5 5.5002 39 5.5002 39 9.1582C39 9.5722 38.664 9.9082 38.25 9.9082 37.836 9.9082 37.5 9.5722 37.5 9.1582L37.5 5.3422C37.5 4.6012 38.102 4.0002 38.842 4.0002L44.658 4.0002C45.398 4.0002 46 4.6012 46 5.3422L46 9.1582C46 9.5722 45.664 9.9082 45.25 9.9082"/>
        <path d="M41.75 5.5C41.336 5.5 41 5.164 41 4.75L41 1.5 35.75 1.5C35.336 1.5 35 1.164 35 .75 35 .336 35.336 0 35.75 0L47.75 0C48.164 0 48.5.336 48.5.75 48.5 1.164 48.164 1.5 47.75 1.5L42.5 1.5 42.5 4.75C42.5 5.164 42.164 5.5 41.75 5.5M31 12.6582L17.5 12.6582C17.224 12.6582 17 12.4342 17 12.1582 17 11.8822 17.224 11.6582 17.5 11.6582L31 11.6582C31.276 11.6582 31.5 11.8822 31.5 12.1582 31.5 12.4342 31.276 12.6582 31 12.6582"/>
        <polygon points="40.008 8.846 40.508 8.846 40.508 5.065 40.008 5.065"/>
        <polygon points="41.5 8.846 42 8.846 42 5.065 41.5 5.065"/>
        <polygon points="42.991 8.846 43.491 8.846 43.491 5.065 42.991 5.065"/>
        <polygon points="5.008 8.846 5.508 8.846 5.508 5.065 5.008 5.065"/>
        <polygon points="6.5 8.846 7 8.846 7 5.065 6.5 5.065"/>
        <polygon points="7.991 8.846 8.491 8.846 8.491 5.065 7.991 5.065"/>
      </g>
    </g>
  </g>
</svg>
