<?xml version="1.0" encoding="utf-8"?>
<!-- Generator: Adobe Illustrator 16.2.0, SVG Export Plug-In . SVG Version: 6.00 Build 0)  -->
<!DOCTYPE svg PUBLIC "-//W3C//DTD SVG 1.1//EN" "http://www.w3.org/Graphics/SVG/1.1/DTD/svg11.dtd">
<svg version="1.1" id="Layer_1" xmlns="http://www.w3.org/2000/svg" xmlns:xlink="http://www.w3.org/1999/xlink" x="0px" y="0px"
	 width="270.085px" height="272.65px" viewBox="0 0 270.085 272.65" enable-background="new 0 0 270.085 272.65"
	 xml:space="preserve">
<circle fill="#2E3192" stroke="#000000" stroke-miterlimit="10" cx="133.821" cy="136.235" r="129.487"/>
<circle fill="#B7E5FA" stroke="#000000" stroke-miterlimit="10" cx="133.821" cy="136.235" r="123.931"/>
<g>
	<g>
		<path fill="#FFFFFF" d="M74.046,153.026c0,3.527-1.219,6.156-3.655,7.888c-2.181,1.539-5.066,2.309-8.657,2.309H41.917
			c-4.617,0-7.983-1.025-10.1-3.078c-2.116-2.052-3.175-5.387-3.175-10.004v-38.767c0-3.655,0.801-6.604,2.405-8.85
			c1.859-2.564,4.584-3.848,8.176-3.848c3.655,0,6.381,1.315,8.177,3.943c1.539,2.309,2.309,5.355,2.309,9.139v30.975
			c0.641,0,1.924-0.031,3.848-0.097c1.924-0.063,3.463-0.096,4.617-0.096c4.745,0,8.336,0.577,10.774,1.731
			C72.347,145.875,74.046,148.793,74.046,153.026z M46.535,111.758c0-2.949-0.45-5.226-1.347-6.83
			c-1.154-2.051-3.144-3.078-5.965-3.078c-2.822,0-4.843,1.027-6.06,3.078c-0.899,1.54-1.347,3.816-1.347,6.83v38.382
			c0,3.72,0.753,6.301,2.261,7.743c1.506,1.443,4.151,2.164,7.936,2.164h19.623c2.757,0,4.873-0.447,6.35-1.347
			c1.924-1.154,2.886-3.045,2.886-5.675c0-2.949-1.411-5.034-4.232-6.253c-2.246-0.962-5.355-1.442-9.331-1.442
			c-2.181,0-4.025,0.064-5.531,0.192c-1.508,0.129-3.256,0.257-5.242,0.385V111.758z M61.349,149.178
			c1.987,0,3.543,0.209,4.665,0.625c1.122,0.418,1.684,1.491,1.684,3.223c0,1.86-0.962,3.015-2.886,3.463
			c-0.898,0.192-1.957,0.288-3.175,0.288H42.014c-2.886,0-4.778-0.399-5.676-1.202c-0.898-0.801-1.347-2.612-1.347-5.435v-38.67
			c0-1.924,0.272-3.479,0.818-4.666c0.544-1.186,1.683-1.779,3.414-1.779c1.795,0,2.982,0.738,3.56,2.213
			c0.385,0.962,0.577,2.469,0.577,4.521v37.42H61.349z"/>
		<path fill="#2E3192" d="M61.733,163.722H41.917c-4.73,0-8.246-1.083-10.448-3.219c-2.208-2.14-3.327-5.627-3.327-10.363v-38.767
			c0-3.745,0.841-6.82,2.499-9.14c1.953-2.693,4.839-4.057,8.583-4.057c3.813,0,6.703,1.4,8.589,4.161
			c1.591,2.386,2.396,5.554,2.396,9.421v30.47c0.716-0.011,1.827-0.041,3.331-0.092c1.988-0.065,3.504-0.096,4.634-0.096
			c4.797,0,8.494,0.599,10.988,1.779c3.572,1.686,5.384,4.783,5.384,9.206c0,3.682-1.301,6.473-3.866,8.295
			C68.422,162.915,65.413,163.722,61.733,163.722z M39.224,99.176c-3.453,0-5.995,1.191-7.771,3.641
			c-1.532,2.144-2.31,5.023-2.31,8.556v38.767c0,4.455,1.017,7.7,3.023,9.645c2.009,1.949,5.29,2.937,9.751,2.937h19.816
			c3.469,0,6.285-0.746,8.369-2.217c2.316-1.646,3.443-4.093,3.443-7.479c0-4.059-1.574-6.774-4.811-8.302
			c-2.36-1.117-5.913-1.684-10.561-1.684c-1.119,0-2.624,0.031-4.601,0.095c-1.932,0.066-3.22,0.097-3.864,0.097h-0.5v-31.475
			c0-3.666-0.749-6.647-2.225-8.861C45.274,100.395,42.735,99.176,39.224,99.176z M61.637,160.547H42.014
			c-3.956,0-6.665-0.753-8.282-2.303c-1.602-1.533-2.415-4.259-2.415-8.104v-38.382c0-3.135,0.463-5.452,1.415-7.082
			c1.31-2.208,3.493-3.326,6.491-3.326c3.002,0,5.156,1.122,6.4,3.333c0.937,1.676,1.411,4.056,1.411,7.075v33.616
			c1.764-0.116,3.331-0.232,4.7-0.349c1.517-0.129,3.392-0.194,5.574-0.194c4.025,0,7.23,0.499,9.528,1.483
			c3.01,1.3,4.536,3.559,4.536,6.712c0,2.805-1.053,4.858-3.128,6.104C66.7,160.07,64.476,160.547,61.637,160.547z M39.224,102.35
			c-2.657,0-4.499,0.927-5.629,2.833c-0.847,1.449-1.277,3.663-1.277,6.575v38.382c0,3.561,0.708,6.045,2.106,7.382
			c1.402,1.344,3.956,2.025,7.59,2.025h19.623c2.653,0,4.702-0.429,6.089-1.274c1.781-1.068,2.646-2.785,2.646-5.248
			c0-2.756-1.286-4.651-3.931-5.794c-2.171-0.93-5.244-1.401-9.133-1.401c-2.154,0-4,0.064-5.489,0.19
			c-1.511,0.129-3.262,0.257-5.252,0.386l-0.532,0.034v-34.683c0-2.846-0.432-5.063-1.283-6.586
			C43.684,103.273,41.875,102.35,39.224,102.35z M61.637,157.277H42.014c-3.043,0-5.009-0.435-6.009-1.33
			c-1.018-0.907-1.513-2.807-1.513-5.807v-38.67c0-1.987,0.291-3.627,0.864-4.875c0.63-1.374,1.932-2.07,3.868-2.07
			c2.014,0,3.368,0.852,4.025,2.531c0.411,1.027,0.611,2.567,0.611,4.703v36.92h17.488c2.037,0,3.665,0.221,4.839,0.656
			c1.334,0.497,2.01,1.739,2.01,3.691c0,2.085-1.131,3.451-3.272,3.95C63.989,157.176,62.886,157.277,61.637,157.277z
			 M39.224,105.525c-1.532,0-2.5,0.487-2.959,1.488c-0.513,1.116-0.773,2.615-0.773,4.458v38.67c0,3.314,0.641,4.582,1.179,5.062
			c0.549,0.491,1.921,1.075,5.343,1.075h19.623c1.179,0,2.212-0.093,3.07-0.277c1.696-0.396,2.49-1.341,2.49-2.974
			c0-1.513-0.444-2.414-1.358-2.754c-1.063-0.394-2.573-0.594-4.491-0.594H42.86v-37.92c0-1.979-0.182-3.437-0.542-4.335
			C41.818,106.145,40.807,105.525,39.224,105.525z"/>
	</g>
	<g>
		<path fill="#FFFFFF" d="M131.858,138.211c0,7.44-2.614,13.772-7.84,18.999c-5.228,5.228-11.56,7.84-18.998,7.84
			c-7.311,0-13.597-2.629-18.854-7.889c-5.259-5.257-7.888-11.574-7.888-18.95c0-7.373,2.598-13.69,7.792-18.95
			c5.194-5.257,11.51-7.888,18.95-7.888c7.374,0,13.69,2.631,18.95,7.888C129.229,124.521,131.858,130.838,131.858,138.211z
			 M80.876,138.211c0,6.734,2.356,12.457,7.07,17.171c4.713,4.714,10.403,7.07,17.074,7.07c6.669,0,12.376-2.372,17.122-7.118
			c4.745-4.745,7.118-10.452,7.118-17.123c0-6.733-2.356-12.457-7.07-17.17c-4.713-4.714-10.437-7.07-17.17-7.07
			c-6.606,0-12.281,2.373-17.026,7.118C83.247,125.835,80.876,131.542,80.876,138.211z M126.76,138.211
			c0,5.965-2.116,11.063-6.349,15.295s-9.363,6.349-15.391,6.349c-5.964,0-11.063-2.116-15.295-6.349s-6.349-9.33-6.349-15.295
			c0-5.964,2.116-11.062,6.349-15.295c4.232-4.232,9.331-6.349,15.295-6.349c5.899,0,10.997,2.116,15.295,6.349
			C124.61,127.15,126.76,132.248,126.76,138.211z M90.11,138.211c0,4.17,1.458,7.712,4.377,10.63
			c2.917,2.919,6.428,4.377,10.533,4.377c4.168,0,7.727-1.443,10.678-4.329c2.948-2.886,4.425-6.445,4.425-10.678
			c0-4.103-1.477-7.631-4.425-10.581c-2.951-2.949-6.51-4.425-10.678-4.425c-4.17,0-7.695,1.443-10.582,4.329
			C91.553,130.42,90.11,133.979,90.11,138.211z M117.525,138.211c0,3.4-1.219,6.317-3.655,8.754
			c-2.438,2.438-5.387,3.655-8.85,3.655c-3.4,0-6.317-1.217-8.754-3.655c-2.438-2.437-3.655-5.354-3.655-8.754
			c0-3.398,1.202-6.332,3.607-8.802c2.404-2.468,5.339-3.703,8.802-3.703s6.412,1.219,8.85,3.655
			C116.307,131.8,117.525,134.749,117.525,138.211z M95.209,138.211c0,2.631,0.962,4.939,2.886,6.927
			c1.924,1.988,4.232,2.981,6.926,2.981c2.756,0,5.098-0.962,7.021-2.886s2.887-4.264,2.887-7.022c0-2.693-0.979-5.017-2.935-6.974
			c-1.957-1.955-4.28-2.934-6.974-2.934s-5.002,0.962-6.926,2.886S95.209,135.456,95.209,138.211z"/>
		<path fill="#2E3192" d="M105.021,165.55c-7.416,0-13.878-2.704-19.208-8.035c-5.331-5.329-8.034-11.824-8.034-19.304
			c0-7.475,2.67-13.969,7.936-19.302c5.27-5.333,11.765-8.036,19.306-8.036c7.475,0,13.97,2.703,19.304,8.034
			c5.331,5.333,8.034,11.828,8.034,19.304c0,7.541-2.687,14.052-7.986,19.353C119.073,162.863,112.562,165.55,105.021,165.55z
			 M105.021,111.874c-7.264,0-13.521,2.604-18.595,7.739c-5.074,5.138-7.647,11.396-7.647,18.599c0,7.205,2.604,13.462,7.741,18.597
			c5.136,5.137,11.36,7.742,18.501,7.742c7.267,0,13.54-2.588,18.645-7.693c5.105-5.106,7.693-11.379,7.693-18.646
			c0-7.201-2.604-13.458-7.741-18.597C118.478,114.478,112.221,111.874,105.021,111.874z M105.021,162.953
			c-6.776,0-12.64-2.428-17.428-7.217c-4.789-4.789-7.217-10.685-7.217-17.524c0-6.776,2.444-12.656,7.265-17.476
			c4.82-4.82,10.668-7.265,17.38-7.265c6.84,0,12.736,2.428,17.523,7.217c4.789,4.788,7.217,10.684,7.217,17.523
			c0,6.776-2.444,12.656-7.265,17.477S111.796,162.953,105.021,162.953z M105.021,114.471c-6.437,0-12.047,2.346-16.673,6.972
			c-4.626,4.625-6.972,10.267-6.972,16.769c0,6.565,2.33,12.223,6.924,16.817c4.593,4.594,10.219,6.924,16.721,6.924
			c6.5,0,12.143-2.346,16.769-6.972s6.972-10.268,6.972-16.77c0-6.565-2.33-12.223-6.924-16.816
			C117.244,116.801,111.585,114.471,105.021,114.471z M105.021,160.355c-6.074,0-11.339-2.185-15.648-6.495
			c-4.31-4.31-6.495-9.575-6.495-15.648c0-6.073,2.185-11.338,6.495-15.648c4.31-4.31,9.575-6.495,15.648-6.495
			c6.007,0,11.271,2.185,15.646,6.492c4.375,4.313,6.594,9.579,6.594,15.651c0,6.074-2.185,11.339-6.495,15.648
			C116.455,158.17,111.158,160.355,105.021,160.355z M105.021,117.068c-5.799,0-10.826,2.087-14.941,6.202
			c-4.115,4.116-6.202,9.144-6.202,14.941c0,5.799,2.087,10.826,6.202,14.941c4.116,4.115,9.143,6.202,14.941,6.202
			c5.862,0,10.921-2.087,15.037-6.202c4.115-4.116,6.202-9.143,6.202-14.941c0-5.795-2.118-10.821-6.295-14.939
			C115.784,119.155,110.756,117.068,105.021,117.068z M105.021,153.718c-4.225,0-7.887-1.522-10.887-4.523
			c-3.001-3-4.523-6.696-4.523-10.983c0-4.35,1.505-8.061,4.475-11.03c2.971-2.97,6.65-4.476,10.936-4.476
			c4.285,0,7.996,1.538,11.031,4.571c3.033,3.035,4.571,6.714,4.571,10.935c0,4.351-1.539,8.063-4.575,11.035
			C113.013,152.214,109.303,153.718,105.021,153.718z M105.021,123.706c-4.011,0-7.452,1.407-10.229,4.183
			c-2.775,2.775-4.182,6.248-4.182,10.323c0,4.013,1.423,7.47,4.23,10.276c2.805,2.807,6.23,4.23,10.18,4.23
			c4.012,0,7.487-1.409,10.328-4.187c2.836-2.776,4.274-6.249,4.274-10.32c0-3.946-1.439-7.387-4.278-10.228
			C112.504,125.145,109.03,123.706,105.021,123.706z M105.021,151.121c-3.522,0-6.587-1.279-9.107-3.802
			c-2.522-2.521-3.802-5.586-3.802-9.107c0-3.518,1.261-6.596,3.749-9.15c2.492-2.558,5.574-3.854,9.16-3.854
			c3.583,0,6.68,1.279,9.203,3.802c2.523,2.525,3.802,5.621,3.802,9.203c0,3.521-1.279,6.585-3.802,9.107
			C111.702,149.841,108.605,151.121,105.021,151.121z M105.021,126.207c-3.307,0-6.147,1.195-8.444,3.552
			c-2.299,2.361-3.465,5.205-3.465,8.453c0,3.247,1.181,6.073,3.509,8.4c2.327,2.328,5.153,3.509,8.4,3.509
			c3.31,0,6.168-1.181,8.496-3.509c2.328-2.328,3.509-5.155,3.509-8.4c0-3.308-1.181-6.166-3.509-8.496
			C111.188,127.387,108.329,126.207,105.021,126.207z M105.021,148.62c-2.822,0-5.273-1.054-7.285-3.134
			c-2.008-2.074-3.026-4.522-3.026-7.274c0-2.882,1.02-5.363,3.032-7.375s4.461-3.032,7.279-3.032c2.816,0,5.281,1.036,7.327,3.08
			c2.044,2.045,3.081,4.511,3.081,7.327c0,2.882-1.021,5.363-3.033,7.376C110.383,147.6,107.902,148.62,105.021,148.62z
			 M105.021,128.804c-2.543,0-4.754,0.922-6.572,2.739c-1.817,1.818-2.739,4.061-2.739,6.668c0,2.484,0.923,4.697,2.745,6.579
			c1.816,1.877,4.026,2.829,6.566,2.829c2.607,0,4.85-0.922,6.668-2.739c1.818-1.818,2.74-4.062,2.74-6.669
			c0-2.542-0.938-4.769-2.788-6.62C109.79,129.742,107.562,128.804,105.021,128.804z"/>
	</g>
	<g>
		<path fill="#FFFFFF" d="M166.486,148.12c-2.245,0-4.152-0.753-5.724-2.261c-1.571-1.506-2.356-3.382-2.356-5.627
			c0-2.757,0.914-4.762,2.741-6.012c1.828-1.251,4.185-1.876,7.07-1.876h7.312c3.655,0,6.171,0.721,7.551,2.164
			c1.378,1.443,2.068,3.992,2.068,7.647v8.272c0,5.387-2.181,9.3-6.541,11.735c-3.463,1.925-8.146,2.887-14.045,2.887
			c-7.824,0-14.414-2.55-19.768-7.647c-5.355-5.099-8.032-11.527-8.032-19.287c0-7.438,2.646-13.771,7.937-18.998
			c5.29-5.227,11.719-7.84,19.286-7.84c3.911,0,7.407,0.77,10.485,2.309c3.911,1.988,5.868,4.778,5.868,8.368
			c0,2.246-0.722,4.185-2.165,5.82c-1.442,1.635-3.318,2.453-5.627,2.453c-1.091,0-2.614-0.337-4.569-1.011
			c-1.957-0.673-3.415-1.01-4.377-1.01c-2.693,0-5.035,0.995-7.021,2.982c-1.989,1.988-2.982,4.361-2.982,7.118
			c0,3.015,1.09,5.468,3.271,7.358c2.18,1.893,4.81,2.838,7.888,2.838c0.641,0,1.539-0.128,2.693-0.385H166.486z M171.296,149.659
			c-2.116,0.899-4.297,1.347-6.541,1.347c-3.784,0-7.007-1.186-9.667-3.559c-2.662-2.372-3.992-5.419-3.992-9.139
			c0-3.463,1.218-6.445,3.655-8.946c2.437-2.501,5.387-3.751,8.85-3.751c1.025,0,2.886,0.449,5.579,1.347
			c1.347,0.449,2.469,0.673,3.367,0.673c1.475,0,2.725-0.577,3.752-1.731c1.024-1.154,1.539-2.468,1.539-3.944
			c0-2.82-1.7-4.969-5.099-6.444c-2.565-1.09-5.483-1.636-8.754-1.636c-6.862,0-12.683,2.325-17.459,6.975
			c-4.778,4.65-7.166,10.405-7.166,17.267c0,6.99,2.42,12.811,7.263,17.459c4.841,4.65,10.821,6.974,17.939,6.974
			c5.194,0,9.235-0.736,12.121-2.212c3.91-1.987,5.867-5.291,5.867-9.908v-8.272c0-2.886-0.466-4.825-1.395-5.819
			c-0.931-0.994-2.807-1.491-5.627-1.491h-7.312c-2.116,0-3.864,0.401-5.242,1.202c-1.38,0.803-2.068,2.197-2.068,4.185
			c0,2.63,1.218,4.297,3.655,5.002c1.09,0.321,3.334,0.481,6.733,0.481V149.659z M163.505,140.328c0-1.474,0.513-2.323,1.539-2.549
			c1.024-0.224,2.083-0.337,3.174-0.337h7.312c1.024,0,2.243,0.161,3.655,0.481c0.385,0.577,0.625,1.219,0.721,1.924
			c0.097,0.706,0.145,1.347,0.145,1.924v8.657c0,3.72-1.7,6.349-5.098,7.888c-2.438,1.092-5.901,1.636-10.39,1.636
			c-6.413,0-11.783-2.035-16.112-6.108c-4.329-4.071-6.493-9.314-6.493-15.728c0-6.092,2.148-11.222,6.445-15.392
			c4.296-4.167,9.49-6.252,15.583-6.252c2.501,0,4.777,0.353,6.83,1.058c2.949,1.027,4.425,2.534,4.425,4.521
			c0,0.834-0.24,1.539-0.722,2.116c-0.48,0.577-1.139,0.866-1.972,0.866c-0.898,0-1.957-0.192-3.175-0.577
			c-3.015-0.963-4.938-1.443-5.771-1.443c-4.104,0-7.647,1.524-10.629,4.569c-2.982,3.047-4.474,6.622-4.474,10.726
			c0,4.361,1.588,8,4.762,10.918c3.175,2.919,7.006,4.377,11.495,4.377c3.078,0,6.124-0.705,9.139-2.116v-8.273
			c-0.129,0-0.674,0.033-1.636,0.097c-0.962,0.064-1.796,0.096-2.501,0.096c-1.796,0-3.287-0.224-4.473-0.673
			C164.097,142.285,163.505,141.482,163.505,140.328z"/>
		<path fill="#2E3192" d="M164.563,165.55c-7.92,0-14.688-2.619-20.112-7.785c-5.433-5.172-8.188-11.783-8.188-19.649
			c0-7.542,2.721-14.053,8.085-19.354c5.362-5.298,11.97-7.984,19.638-7.984c3.972,0,7.575,0.794,10.709,2.361
			c4.078,2.073,6.145,5.039,6.145,8.815c0,2.359-0.771,4.429-2.29,6.151c-1.535,1.74-3.555,2.622-6.002,2.622
			c-1.157,0-2.706-0.339-4.732-1.038c-1.896-0.652-3.313-0.982-4.214-0.982c-2.544,0-4.787,0.954-6.668,2.836
			c-1.882,1.881-2.836,4.157-2.836,6.765c0,2.89,1.014,5.173,3.098,6.98c1.608,1.396,3.497,2.259,5.634,2.577
			c-0.875-0.395-1.681-0.944-2.411-1.646c-1.666-1.596-2.511-3.611-2.511-5.988c0-2.92,0.995-5.081,2.959-6.424
			c1.903-1.303,4.378-1.963,7.353-1.963h7.312c3.833,0,6.421,0.758,7.912,2.318c1.485,1.556,2.207,4.17,2.207,7.993v8.272
			c0,5.557-2.287,9.652-6.797,12.172C175.329,164.558,170.521,165.55,164.563,165.55z M163.985,111.778
			c-7.396,0-13.767,2.589-18.935,7.695s-7.788,11.378-7.788,18.643c0,7.582,2.65,13.949,7.877,18.925
			c5.233,4.983,11.768,7.51,19.423,7.51c5.787,0,10.431-0.95,13.802-2.824c4.229-2.362,6.284-6.058,6.284-11.298v-8.272
			c0-3.504-0.649-5.961-1.93-7.302c-1.274-1.333-3.693-2.009-7.189-2.009h-7.312c-2.77,0-5.054,0.602-6.788,1.789
			c-1.698,1.162-2.523,2.993-2.523,5.599c0,2.123,0.721,3.846,2.202,5.266c1.488,1.428,3.247,2.122,5.378,2.122h4.31v-1.405
			c-3.197-0.016-5.285-0.18-6.375-0.501c-2.662-0.77-4.014-2.615-4.014-5.481c0-2.169,0.779-3.722,2.317-4.617
			c1.449-0.843,3.298-1.27,5.493-1.27h7.312c2.993,0,4.953,0.54,5.992,1.649c1.029,1.102,1.529,3.117,1.529,6.161v8.272
			c0,4.799-2.066,8.283-6.141,10.354c-2.94,1.503-7.095,2.266-12.348,2.266c-7.221,0-13.373-2.393-18.286-7.113
			c-4.921-4.723-7.416-10.719-7.416-17.819c0-6.97,2.462-12.899,7.317-17.625c4.851-4.722,10.842-7.116,17.808-7.116
			c3.321,0,6.332,0.564,8.949,1.676c3.587,1.557,5.403,3.879,5.403,6.904c0,1.593-0.561,3.031-1.665,4.276
			c-1.122,1.26-2.51,1.899-4.126,1.899c-0.95,0-2.136-0.235-3.525-0.699c-2.631-0.876-4.454-1.321-5.421-1.321
			c-3.308,0-6.164,1.211-8.491,3.6c-2.332,2.392-3.514,5.284-3.514,8.597c0,3.555,1.287,6.504,3.825,8.765
			c2.553,2.277,5.693,3.432,9.334,3.432c2.063,0,4.093-0.397,6.041-1.181v-1.438l-3.239,0.721c-1.199,0.267-2.116,0.396-2.802,0.396
			c-3.189,0-5.953-0.996-8.216-2.96c-2.284-1.98-3.442-4.583-3.442-7.736c0-2.883,1.053-5.396,3.129-7.472
			c2.075-2.076,4.557-3.129,7.375-3.129c1.025,0,2.51,0.339,4.539,1.037c1.895,0.652,3.377,0.983,4.407,0.983
			c2.178,0,3.896-0.747,5.252-2.284c1.373-1.556,2.04-3.352,2.04-5.49c0-3.417-1.83-6.009-5.595-7.922
			C171.253,112.537,167.801,111.778,163.985,111.778z M163.985,114.375c-6.695,0-12.452,2.299-17.11,6.833
			c-4.654,4.53-7.015,10.219-7.015,16.908c0,6.818,2.392,12.57,7.109,17.098c4.721,4.535,10.64,6.834,17.593,6.834
			c5.093,0,9.094-0.726,11.894-2.157c3.765-1.914,5.595-5.009,5.595-9.463v-8.272c0-2.74-0.424-4.583-1.26-5.478
			c-0.828-0.884-2.598-1.333-5.262-1.333h-7.312c-2.017,0-3.695,0.382-4.991,1.134c-1.224,0.712-1.819,1.94-1.819,3.752
			c0,2.401,1.077,3.88,3.294,4.521c1.04,0.307,3.259,0.462,6.595,0.462h0.5v2.404h0.202l-0.202,0.045v2.325l-0.305,0.129
			c-2.164,0.92-4.431,1.387-6.736,1.387c-3.894,0-7.259-1.24-10-3.686c-2.76-2.459-4.159-5.659-4.159-9.512
			c0-3.583,1.277-6.71,3.797-9.295c2.522-2.589,5.621-3.902,9.208-3.902c1.089,0,2.966,0.449,5.737,1.373
			c1.287,0.429,2.367,0.647,3.209,0.647c1.337,0,2.441-0.512,3.379-1.564c0.95-1.071,1.412-2.252,1.412-3.612
			c0-2.626-1.569-4.584-4.798-5.986C170.051,114.912,167.172,114.375,163.985,114.375z M164.563,160.452
			c-6.515,0-12.052-2.101-16.455-6.244c-4.413-4.15-6.65-9.564-6.65-16.092c0-6.203,2.22-11.502,6.597-15.75
			c4.374-4.242,9.733-6.393,15.932-6.393c2.544,0,4.897,0.365,6.992,1.085c3.161,1.101,4.763,2.781,4.763,4.994
			c0,0.95-0.282,1.77-0.838,2.437c-1.131,1.359-3.106,1.259-5.681,0.445c-3.676-1.174-5.085-1.42-5.621-1.42
			c-3.944,0-7.4,1.487-10.271,4.419c-2.874,2.936-4.331,6.427-4.331,10.376c0,4.194,1.548,7.744,4.601,10.55
			c3.063,2.817,6.816,4.245,11.156,4.245c2.893,0,5.797-0.651,8.639-1.937v-7.428c-0.267,0.016-0.635,0.04-1.103,0.071
			c-0.959,0.064-1.812,0.097-2.534,0.097c-1.851,0-3.415-0.237-4.649-0.705c-1.375-0.519-2.103-1.513-2.103-2.873
			c0-2.159,1.051-2.843,1.932-3.037c1.06-0.231,2.163-0.349,3.281-0.349h7.312c1.055,0,2.321,0.166,3.766,0.494l0.195,0.044
			l0.11,0.166c0.426,0.638,0.694,1.356,0.8,2.134c0.1,0.722,0.149,1.393,0.149,1.991v8.657c0,3.916-1.813,6.723-5.392,8.343
			C172.668,159.887,169.104,160.452,164.563,160.452z M163.985,116.972c-5.929,0-11.055,2.056-15.235,6.111
			c-4.176,4.053-6.293,9.11-6.293,15.033c0,6.241,2.132,11.41,6.336,15.363c4.212,3.963,9.518,5.973,15.77,5.973
			c4.399,0,7.826-0.536,10.186-1.592c3.23-1.463,4.802-3.895,4.802-7.431v-8.657c0-0.554-0.047-1.178-0.14-1.856
			c-0.076-0.56-0.257-1.08-0.537-1.549c-1.288-0.282-2.412-0.424-3.344-0.424h-7.312c-1.046,0-2.078,0.109-3.067,0.325
			c-0.491,0.108-1.146,0.439-1.146,2.061c0,0.947,0.463,1.563,1.456,1.938c1.122,0.425,2.567,0.641,4.296,0.641
			c0.7,0,1.531-0.032,2.468-0.095c0.981-0.064,1.537-0.098,1.669-0.098h0.5v9.091l-0.288,0.135
			c-3.066,1.436-6.213,2.164-9.351,2.164c-4.598,0-8.579-1.517-11.834-4.509c-3.267-3.003-4.923-6.801-4.923-11.286
			c0-4.22,1.553-7.946,4.616-11.075c3.066-3.132,6.763-4.72,10.986-4.72c0.896,0,2.833,0.48,5.924,1.467
			c2.102,0.664,3.751,0.897,4.61-0.133c0.407-0.489,0.605-1.077,0.605-1.796c0-1.766-1.338-3.091-4.089-4.049
			C168.662,117.319,166.419,116.972,163.985,116.972z"/>
	</g>
	<g>
		<path fill="#FFFFFF" d="M243.633,138.211c0,7.44-2.614,13.772-7.84,18.999c-5.228,5.228-11.56,7.84-18.998,7.84
			c-7.311,0-13.597-2.629-18.854-7.889c-5.259-5.257-7.888-11.574-7.888-18.95c0-7.373,2.598-13.69,7.792-18.95
			c5.194-5.257,11.51-7.888,18.95-7.888c7.374,0,13.69,2.631,18.95,7.888C241.003,124.521,243.633,130.838,243.633,138.211z
			 M192.65,138.211c0,6.734,2.356,12.457,7.07,17.171c4.713,4.714,10.403,7.07,17.074,7.07c6.669,0,12.376-2.372,17.122-7.118
			c4.745-4.745,7.118-10.452,7.118-17.123c0-6.733-2.356-12.457-7.07-17.17c-4.713-4.714-10.437-7.07-17.17-7.07
			c-6.606,0-12.281,2.373-17.026,7.118C195.021,125.835,192.65,131.542,192.65,138.211z M238.534,138.211
			c0,5.965-2.116,11.063-6.349,15.295s-9.363,6.349-15.391,6.349c-5.964,0-11.063-2.116-15.295-6.349s-6.349-9.33-6.349-15.295
			c0-5.964,2.116-11.062,6.349-15.295c4.232-4.232,9.331-6.349,15.295-6.349c5.899,0,10.997,2.116,15.295,6.349
			C236.385,127.15,238.534,132.248,238.534,138.211z M201.885,138.211c0,4.17,1.458,7.712,4.377,10.63
			c2.917,2.919,6.428,4.377,10.533,4.377c4.168,0,7.727-1.443,10.678-4.329c2.948-2.886,4.425-6.445,4.425-10.678
			c0-4.103-1.477-7.631-4.425-10.581c-2.951-2.949-6.51-4.425-10.678-4.425c-4.17,0-7.695,1.443-10.582,4.329
			C203.327,130.42,201.885,133.979,201.885,138.211z M229.3,138.211c0,3.4-1.219,6.317-3.655,8.754
			c-2.438,2.438-5.387,3.655-8.85,3.655c-3.4,0-6.317-1.217-8.754-3.655c-2.438-2.437-3.655-5.354-3.655-8.754
			c0-3.398,1.202-6.332,3.607-8.802c2.404-2.468,5.339-3.703,8.802-3.703s6.412,1.219,8.85,3.655
			C228.081,131.8,229.3,134.749,229.3,138.211z M206.983,138.211c0,2.631,0.962,4.939,2.886,6.927
			c1.924,1.988,4.232,2.981,6.926,2.981c2.756,0,5.098-0.962,7.021-2.886s2.887-4.264,2.887-7.022c0-2.693-0.979-5.017-2.935-6.974
			c-1.957-1.955-4.28-2.934-6.974-2.934s-5.002,0.962-6.926,2.886S206.983,135.456,206.983,138.211z"/>
		<path fill="#2E3192" d="M216.795,165.55c-7.416,0-13.878-2.704-19.208-8.035c-5.331-5.329-8.034-11.824-8.034-19.304
			c0-7.475,2.67-13.969,7.937-19.302c5.269-5.333,11.765-8.036,19.306-8.036c7.475,0,13.97,2.703,19.304,8.034
			c5.331,5.333,8.034,11.828,8.034,19.304c0,7.541-2.687,14.052-7.986,19.353C230.848,162.863,224.336,165.55,216.795,165.55z
			 M216.795,111.874c-7.265,0-13.521,2.604-18.595,7.739c-5.074,5.138-7.647,11.396-7.647,18.599c0,7.205,2.604,13.462,7.741,18.597
			c5.136,5.137,11.36,7.742,18.501,7.742c7.267,0,13.539-2.588,18.645-7.693c5.104-5.106,7.693-11.379,7.693-18.646
			c0-7.201-2.604-13.458-7.741-18.597C230.252,114.478,223.995,111.874,216.795,111.874z M216.795,162.953
			c-6.776,0-12.64-2.428-17.428-7.217c-4.789-4.789-7.217-10.685-7.217-17.524c0-6.776,2.444-12.656,7.265-17.476
			c4.82-4.82,10.668-7.265,17.38-7.265c6.84,0,12.735,2.428,17.523,7.217c4.789,4.788,7.217,10.684,7.217,17.523
			c0,6.776-2.444,12.656-7.265,17.477S223.57,162.953,216.795,162.953z M216.795,114.471c-6.438,0-12.047,2.346-16.673,6.972
			c-4.626,4.625-6.972,10.267-6.972,16.769c0,6.565,2.329,12.223,6.924,16.817c4.594,4.594,10.219,6.924,16.721,6.924
			c6.501,0,12.143-2.346,16.769-6.972s6.972-10.268,6.972-16.77c0-6.565-2.329-12.223-6.924-16.816
			C229.018,116.801,223.36,114.471,216.795,114.471z M216.795,160.355c-6.074,0-11.339-2.185-15.648-6.495
			c-4.31-4.31-6.495-9.575-6.495-15.648c0-6.073,2.186-11.338,6.495-15.648c4.31-4.31,9.574-6.495,15.648-6.495
			c6.007,0,11.271,2.185,15.646,6.492c4.375,4.313,6.594,9.579,6.594,15.651c0,6.074-2.186,11.339-6.495,15.648
			C228.229,158.17,222.933,160.355,216.795,160.355z M216.795,117.068c-5.799,0-10.826,2.087-14.941,6.202
			c-4.115,4.116-6.202,9.144-6.202,14.941c0,5.799,2.087,10.826,6.202,14.941c4.115,4.115,9.143,6.202,14.941,6.202
			c5.862,0,10.922-2.087,15.037-6.202c4.115-4.116,6.202-9.143,6.202-14.941c0-5.795-2.118-10.821-6.295-14.939
			C227.558,119.155,222.53,117.068,216.795,117.068z M216.795,153.718c-4.225,0-7.888-1.522-10.887-4.523
			c-3.002-3-4.523-6.696-4.523-10.983c0-4.35,1.506-8.061,4.475-11.03c2.971-2.97,6.65-4.476,10.936-4.476
			c4.284,0,7.996,1.538,11.031,4.571c3.033,3.035,4.571,6.714,4.571,10.935c0,4.351-1.539,8.063-4.575,11.035
			C224.788,152.214,221.078,153.718,216.795,153.718z M216.795,123.706c-4.011,0-7.452,1.407-10.229,4.183
			c-2.774,2.775-4.182,6.248-4.182,10.323c0,4.013,1.423,7.47,4.23,10.276c2.806,2.807,6.23,4.23,10.18,4.23
			c4.013,0,7.487-1.409,10.328-4.187c2.836-2.776,4.274-6.249,4.274-10.32c0-3.946-1.439-7.387-4.278-10.228
			C224.278,125.145,220.805,123.706,216.795,123.706z M216.795,151.121c-3.522,0-6.587-1.279-9.107-3.802
			c-2.522-2.521-3.802-5.586-3.802-9.107c0-3.518,1.262-6.596,3.749-9.15c2.492-2.558,5.574-3.854,9.16-3.854
			c3.583,0,6.68,1.279,9.203,3.802c2.522,2.525,3.802,5.621,3.802,9.203c0,3.521-1.279,6.585-3.802,9.107
			C223.477,149.841,220.38,151.121,216.795,151.121z M216.795,126.207c-3.307,0-6.147,1.195-8.443,3.552
			c-2.3,2.361-3.466,5.205-3.466,8.453c0,3.247,1.181,6.073,3.509,8.4c2.326,2.328,5.152,3.509,8.4,3.509
			c3.311,0,6.169-1.181,8.496-3.509c2.328-2.328,3.509-5.155,3.509-8.4c0-3.308-1.181-6.166-3.509-8.496
			C222.962,127.387,220.104,126.207,216.795,126.207z M216.795,148.62c-2.822,0-5.273-1.054-7.285-3.134
			c-2.008-2.074-3.026-4.522-3.026-7.274c0-2.882,1.021-5.363,3.032-7.375s4.461-3.032,7.279-3.032c2.816,0,5.281,1.036,7.327,3.08
			c2.045,2.045,3.081,4.511,3.081,7.327c0,2.882-1.021,5.363-3.033,7.376C222.158,147.6,219.677,148.62,216.795,148.62z
			 M216.795,128.804c-2.543,0-4.755,0.922-6.572,2.739c-1.817,1.818-2.739,4.061-2.739,6.668c0,2.484,0.924,4.697,2.745,6.579
			c1.816,1.877,4.025,2.829,6.566,2.829c2.606,0,4.851-0.922,6.668-2.739c1.818-1.818,2.74-4.062,2.74-6.669
			c0-2.542-0.938-4.769-2.788-6.62C221.563,129.742,219.336,128.804,216.795,128.804z"/>
	</g>
</g>
</svg>
